<?xml version="1.0" encoding="UTF-8"?>
<svg version="1.1" xmlns="http://www.w3.org/2000/svg" width="1080" height="193">
<path d="M0 0 C3.81869575 7.09828151 7.04101084 14.34852767 10.0625 21.8125 C10.43141357 22.72064453 10.80032715 23.62878906 11.18041992 24.56445312 C12.99165032 29.02953793 14.79775084 33.49664203 16.59521484 37.96728516 C18.01438604 41.49257434 19.44954994 45.01106111 20.89303589 48.52645874 C21.4609687 49.91721762 22.02364252 51.31013655 22.58084106 52.70523071 C23.36876136 54.67637562 24.17451007 56.63935055 24.984375 58.6015625 C25.44553711 59.73932129 25.90669922 60.87708008 26.38183594 62.04931641 C28.2242696 65.40895027 29.67174062 67.0951129 33 69 C34.98 68.67 36.96 68.34 39 68 C39.33 48.2 39.66 28.4 40 8 C38.02 7.67 36.04 7.34 34 7 C33.375 4.625 33.375 4.625 33 2 C35.36416133 -0.36416133 35.82454866 -0.25448125 39.03149414 -0.2746582 C39.86318619 -0.28419022 40.69487823 -0.29372223 41.55177307 -0.30354309 C42.90479774 -0.30217598 42.90479774 -0.30217598 44.28515625 -0.30078125 C45.21541122 -0.30506638 46.1456662 -0.3093515 47.10411072 -0.31376648 C49.07875759 -0.31951919 51.05342566 -0.32000315 53.02807617 -0.31567383 C56.02625681 -0.31253791 59.02342759 -0.33587689 62.02148438 -0.36132812 C63.9427071 -0.36360366 65.86393245 -0.36430344 67.78515625 -0.36328125 C69.1169265 -0.37709587 69.1169265 -0.37709587 70.4756012 -0.39118958 C78.52182972 -0.33248638 86.12623452 1.12623452 92 7 C95.89694997 11.59283389 96.10380192 17.18709272 96 23 C95.09217422 29.74995166 92.17293838 33.39554368 86.9375 37.58984375 C85.3202696 38.76690055 83.66428714 39.89047524 82 41 C90.88313601 56.00637791 90.88313601 56.00637791 103 68 C104.32 68 105.64 68 107 68 C110.53911238 61.26665394 113.31970168 54.34004241 116.0625 47.25 C116.5356665 46.04093994 117.00883301 44.83187988 117.49633789 43.58618164 C119.78382545 37.74085456 122.04835885 31.88749876 124.27339172 26.01809692 C125.25192792 23.44127498 126.23954888 20.86798361 127.22824097 18.29504395 C127.92633088 16.46675185 128.61086528 14.63330244 129.29516602 12.79980469 C129.72240967 11.68895508 130.14965332 10.57810547 130.58984375 9.43359375 C131.14466431 7.96490845 131.14466431 7.96490845 131.71069336 6.46655273 C133.13549517 3.74078626 134.38421166 2.57275763 137 1 C139.68084404 0.3591413 142.23845677 0.2301286 145 0 C150.59220315 10.54274183 154.93162462 21.48717874 159.31738281 32.56860352 C162.7763501 41.28875702 166.31890802 49.95794223 170.2265625 58.48828125 C170.70432632 59.55782295 170.70432632 59.55782295 171.19174194 60.64897156 C173.79565598 66.21658834 176.56197094 68.47520079 182 71 C182.042721 72.66611905 182.04063832 74.33382885 182 76 C180.32326351 77.67673649 178.27144924 77.12787817 176.03344727 77.13894653 C175.34178467 77.1369223 174.65012207 77.13489807 173.9375 77.1328125 C172.87776978 77.13424759 172.87776978 77.13424759 171.79663086 77.13571167 C170.30029207 77.13639333 168.80395033 77.13454005 167.30761719 77.13037109 C165.00969843 77.12502257 162.71197514 77.13031651 160.4140625 77.13671875 C158.96354123 77.13605797 157.51302009 77.1347768 156.0625 77.1328125 C155.0250061 77.13584885 155.0250061 77.13584885 153.96655273 77.13894653 C149.11495224 77.11495224 149.11495224 77.11495224 148 76 C147.95936168 74.33382885 147.957279 72.66611905 148 71 C149.32 70.34 150.64 69.68 152 69 C151.40656104 63.30298599 150.10935397 59.62494392 148 54 C140.41 53.67 132.82 53.34 125 53 C123.79204333 58.435805 122.69842346 63.52901623 122 69 C123.32 69.66 124.64 70.32 126 71 C126.042721 72.66611905 126.04063832 74.33382885 126 76 C124.05337638 77.94662362 120.36846509 77.18736396 117.7109375 77.203125 C116.97428864 77.20882507 116.23763977 77.21452515 115.47866821 77.22039795 C113.91336509 77.22986622 112.34804188 77.23638915 110.78271484 77.24023438 C108.40555984 77.24987605 106.0292932 77.28085349 103.65234375 77.3125 C102.13021346 77.31903645 100.60807698 77.32428439 99.0859375 77.328125 C98.38149506 77.3404718 97.67705261 77.3528186 96.95126343 77.36553955 C91.06716936 77.33945377 86.44666555 76.04490681 81.8828125 72.23046875 C75.62070105 64.95250367 69.81466238 56.80375454 65.61328125 48.140625 C63.83050188 45.26383009 63.83050188 45.26383009 58 45 C58.495 56.88 58.495 56.88 59 69 C60.98 69.33 62.96 69.66 65 70 C65.625 72.375 65.625 72.375 66 75 C63.32806098 77.67193902 62.02973245 77.25316128 58.296875 77.25878906 C57.10223633 77.26509338 55.90759766 77.27139771 54.67675781 77.27789307 C53.38092773 77.2738446 52.08509766 77.26979614 50.75 77.265625 C49.41243418 77.26697178 48.07486883 77.26891243 46.73730469 77.27142334 C43.93289534 77.274374 41.12861331 77.27007894 38.32421875 77.26074219 C34.72595078 77.24934754 31.12798114 77.25590734 27.52972412 77.26788712 C24.76739242 77.27510736 22.00513167 77.27281706 19.24279785 77.26763153 C17.26961067 77.26564475 15.29642074 77.27172842 13.32324219 77.27789307 C12.12860352 77.27158875 10.93396484 77.26528442 9.703125 77.25878906 C8.64770508 77.25719788 7.59228516 77.25560669 6.50488281 77.25396729 C4 77 4 77 2 75 C2.125 73 2.125 73 3 71 C5.0625 69.75 5.0625 69.75 7 69 C6.40656104 63.30298599 5.10935397 59.62494392 3 54 C-4.59 53.67 -12.18 53.34 -20 53 C-21.20795667 58.435805 -22.30157654 63.52901623 -23 69 C-21.35 69.66 -19.7 70.32 -18 71 C-17.957279 72.66611905 -17.95936168 74.33382885 -18 76 C-19.74545605 77.74545605 -22.16124217 77.1302316 -24.53125 77.1328125 C-25.65144531 77.13410156 -26.77164063 77.13539063 -27.92578125 77.13671875 C-29.10527344 77.13285156 -30.28476562 77.12898438 -31.5 77.125 C-33.26923828 77.13080078 -33.26923828 77.13080078 -35.07421875 77.13671875 C-36.19441406 77.13542969 -37.31460938 77.13414062 -38.46875 77.1328125 C-39.50451172 77.13168457 -40.54027344 77.13055664 -41.60742188 77.12939453 C-44 77 -44 77 -45 76 C-45.04063832 74.33382885 -45.042721 72.66611905 -45 71 C-43.79730469 70.61199219 -42.59460938 70.22398437 -41.35546875 69.82421875 C-34.98337856 66.60105332 -33.58375273 60.14976814 -31.3125 53.8125 C-30.81355608 52.48999036 -30.3115411 51.16863573 -29.80664062 49.84838867 C-28.73953003 47.04714495 -27.68734537 44.24097025 -26.64697266 41.4296875 C-24.11514191 34.5991556 -21.49523995 27.80302328 -18.85189819 21.01498413 C-18.01075218 18.84029851 -17.1868913 16.65961916 -16.36450195 14.4777832 C-15.84779717 13.13728985 -15.33049374 11.79702705 -14.8125 10.45703125 C-14.14154297 8.6932312 -14.14154297 8.6932312 -13.45703125 6.89379883 C-10.518319 1.05724448 -6.26632328 -0.16936009 0 0 Z M58 9 C58 17.91 58 26.82 58 36 C65.70235755 36 69.52416825 35.76284062 75.4375 31.0625 C77.92877794 26.17959524 77.7282096 21.36497279 77 16 C75.15046662 12.44320504 73.87028738 11.42502407 70.3125 9.6875 C66.09514794 8.69517531 66.09514794 8.69517531 58 9 Z M-9 24 C-11.31 30.6 -13.62 37.2 -16 44 C-11.05 44 -6.1 44 -1 44 C-1.86178468 39.69107662 -2.98164747 35.87995554 -4.4375 31.75 C-4.86933594 30.50734375 -5.30117188 29.2646875 -5.74609375 27.984375 C-6.66180148 24.89769554 -6.66180148 24.89769554 -9 24 Z M136 24 C133.69 30.6 131.38 37.2 129 44 C133.95 44 138.9 44 144 44 C143.33533318 40.67666588 142.82159397 38.24432568 141.58984375 35.23046875 C141.32236328 34.56982422 141.05488281 33.90917969 140.77929688 33.22851562 C140.50150391 32.55498047 140.22371094 31.88144531 139.9375 31.1875 C139.65583984 30.49462891 139.37417969 29.80175781 139.08398438 29.08789062 C138.39325027 27.39032376 137.69716272 25.69493688 137 24 C136.67 24 136.34 24 136 24 Z " fill="#000000" transform="translate(572,60)"/>
<path d="M0 0 C11.22 0 22.44 0 34 0 C34.495 2.475 34.495 2.475 35 5 C33 7 33 7 27 8 C27 18.56 27 29.12 27 40 C36.73791902 33.50805398 51.52263223 21.43206168 54.75 9.14453125 C54.8325 8.43683594 54.915 7.72914062 55 7 C52.525 6.505 52.525 6.505 50 6 C48.875 2.25 48.875 2.25 50 0 C61.22 0 72.44 0 84 0 C84.495 2.475 84.495 2.475 85 5 C82.7936288 7.2063712 81.81447047 7.42446672 78.875 8.1875 C71.07917112 10.6861631 66.10457126 16.6487884 60.94140625 22.734375 C58.53700539 25.54031565 56.05349781 28.27122113 53.5625 31 C52.26505859 32.423125 52.26505859 32.423125 50.94140625 33.875 C50.30074219 34.57625 49.66007812 35.2775 49 36 C59.0769096 54.7015587 70.96496809 76.4591395 92 84 C97.58202319 85.3955058 103.2836809 85.09154248 109 85 C108.01 84.52691406 107.02 84.05382812 106 83.56640625 C94.94899314 78.10455908 86.54514652 71.93699008 82 60 C78.35755462 49.07266387 79.22365017 38.45753611 84 28 C90.20582317 17.25915221 100.04447842 10.41294884 111.9140625 7.21484375 C125.19130964 4.56990402 137.72634472 6.53539958 149.375 13.4375 C156.79011562 18.40608053 162.91622824 25.51050169 165.4921875 34.15625 C167.58057374 45.85121292 166.76606935 57.16190186 160.52734375 67.421875 C154.1895855 76.35167149 144.74846472 82.76941781 134 85 C127.35296627 85.69968776 120.67846922 85.86917788 114 86 C113.91234375 86.94230469 113.8246875 87.88460937 113.734375 88.85546875 C113 92 113 92 111.328125 93.42578125 C110.64234375 93.71839844 109.9565625 94.01101562 109.25 94.3125 C108.23679688 94.77076172 108.23679688 94.77076172 107.203125 95.23828125 C95.79196783 99.18362814 82.9038318 97.67903893 72 93 C57.75764853 85.94591475 49.3643742 73.28236639 41.31738281 60.0769043 C37.65692341 53.37966064 37.65692341 53.37966064 31.69628906 49.26708984 C29.24610172 49.18343558 29.24610172 49.18343558 26 50 C26.13842295 53.95862931 26.28699006 57.91681327 26.4375 61.875 C26.47681641 63.00292969 26.51613281 64.13085938 26.55664062 65.29296875 C26.59853516 66.36933594 26.64042969 67.44570312 26.68359375 68.5546875 C26.72025146 69.54968262 26.75690918 70.54467773 26.79467773 71.56982422 C26.84959532 74.00779501 26.84959532 74.00779501 28 76 C30.30965848 77.05352843 32.6429774 78.05719096 35 79 C34.125 83.875 34.125 83.875 33 85 C30.63601532 85.1007812 28.30188689 85.13973215 25.9375 85.1328125 C25.23101318 85.13376923 24.52452637 85.13472595 23.79663086 85.13571167 C22.30029207 85.13639333 20.80395033 85.13454005 19.30761719 85.13037109 C17.00969843 85.12502257 14.71197514 85.13031651 12.4140625 85.13671875 C10.96354123 85.13605797 9.51302009 85.1347768 8.0625 85.1328125 C7.0250061 85.13584885 7.0250061 85.13584885 5.96655273 85.13894653 C1.11495224 85.11495224 1.11495224 85.11495224 0 84 C-0.04080783 82.00041636 -0.04254356 79.99954746 0 78 C3.465 77.505 3.465 77.505 7 77 C7.02314169 68.29883071 7.04092443 59.59767197 7.05181217 50.89647865 C7.05703699 46.85643046 7.06412739 42.81640328 7.07543945 38.77636719 C7.08628254 34.879559 7.09227987 30.98277105 7.09487724 27.08594894 C7.09672892 25.59715837 7.10034463 24.10836893 7.10573006 22.61958694 C7.11295934 20.53884715 7.11399014 18.45819168 7.11352539 16.37744141 C7.115746 15.19163483 7.11796661 14.00582825 7.12025452 12.78408813 C7.19162489 10.0430835 7.19162489 10.0430835 6 8 C4.02111039 7.27306096 2.02045442 6.60183749 0 6 C0 4.02 0 2.04 0 0 Z M105 24 C99.13600177 33.26586899 98.69008206 44.28489275 100.49609375 54.921875 C102.4177726 61.91374608 105.3527521 67.93514664 111.125 72.4375 C117.59397978 75.95324988 125.30586675 76.18867568 132.421875 74.38671875 C137.79543135 72.02277051 141.30309596 68.15856412 144 63 C148.11312284 51.73159555 148.11689042 41.23272256 144 30 C140.70787294 23.76847379 136.01627863 19.16417772 129.4375 16.625 C120.02068353 14.91285155 111.74197586 16.94444386 105 24 Z " fill="#000000" transform="translate(122,52)"/>
<path d="M0 0 C1.29349365 0.00523682 2.5869873 0.01047363 3.91967773 0.01586914 C4.9496714 0.01799156 4.9496714 0.01799156 6.00047302 0.02015686 C8.20144949 0.0257706 10.40232557 0.03832532 12.60327148 0.05102539 C14.09220231 0.05603863 15.58113473 0.06060184 17.07006836 0.06469727 C20.72700223 0.07574446 24.38387707 0.09301826 28.04077148 0.11352539 C28.66577148 2.48852539 28.66577148 2.48852539 29.04077148 5.11352539 C27.04077148 7.11352539 27.04077148 7.11352539 23.04077148 8.11352539 C22.71077148 15.37352539 22.38077148 22.63352539 22.04077148 30.11352539 C31.94077148 30.11352539 41.84077148 30.11352539 52.04077148 30.11352539 C51.71077148 22.52352539 51.38077148 14.93352539 51.04077148 7.11352539 C49.39077148 7.11352539 47.74077148 7.11352539 46.04077148 7.11352539 C45.04077148 6.11352539 45.04077148 6.11352539 44.91577148 3.61352539 C45.04077148 1.11352539 45.04077148 1.11352539 46.04077148 0.11352539 C48.33228566 0.02561564 50.62649673 0.00658501 52.91967773 0.01586914 C53.9496714 0.01799156 53.9496714 0.01799156 55.00047302 0.02015686 C57.20144949 0.0257706 59.40232557 0.03832532 61.60327148 0.05102539 C63.09220231 0.05603863 64.58113473 0.06060184 66.07006836 0.06469727 C69.72700223 0.07574446 73.38387707 0.09301826 77.04077148 0.11352539 C77.66577148 2.48852539 77.66577148 2.48852539 78.04077148 5.11352539 C76.04077148 7.11352539 76.04077148 7.11352539 73.97827148 7.61352539 C73.01920898 7.86102539 73.01920898 7.86102539 72.04077148 8.11352539 C70.722196 10.75067635 70.92085444 12.71185179 70.92724609 15.66479492 C70.92732162 16.82584747 70.92739716 17.98690002 70.92747498 19.18313599 C70.93263626 20.44149261 70.93779755 21.69984924 70.94311523 22.99633789 C70.94453018 24.2808786 70.94594513 25.56541931 70.94740295 26.8888855 C70.95122237 30.30509381 70.96104775 33.72125965 70.97210693 37.13745117 C70.98233341 40.62295965 70.98690323 44.10847499 70.99194336 47.59399414 C71.00267053 54.43385534 71.01974007 61.27368833 71.04077148 68.11352539 C73.02077148 68.44352539 75.00077148 68.77352539 77.04077148 69.11352539 C77.66577148 71.48852539 77.66577148 71.48852539 78.04077148 74.11352539 C76.04077148 76.11352539 76.04077148 76.11352539 73.07568359 76.35644531 C71.83568604 76.35233643 70.59568848 76.34822754 69.31811523 76.34399414 C68.65743546 76.34353592 67.99675568 76.3430777 67.3160553 76.34260559 C65.91983239 76.3395846 64.52361281 76.33170281 63.12744141 76.31933594 C60.9831965 76.30106735 58.83938299 76.29882633 56.69506836 76.29907227 C46.1882036 76.26095751 46.1882036 76.26095751 45.04077148 75.11352539 C45.00013316 73.44735424 44.99805048 71.77964444 45.04077148 70.11352539 C48.01077148 69.12352539 48.01077148 69.12352539 51.04077148 68.11352539 C51.37077148 58.87352539 51.70077148 49.63352539 52.04077148 40.11352539 C42.14077148 40.11352539 32.24077148 40.11352539 22.04077148 40.11352539 C22.04077148 49.35352539 22.04077148 58.59352539 22.04077148 68.11352539 C24.02077148 68.44352539 26.00077148 68.77352539 28.04077148 69.11352539 C28.42210447 71.10493099 28.75402731 73.10631616 29.04077148 75.11352539 C27.13227201 77.02202487 23.72598374 76.24412172 21.19702148 76.24633789 C20.51273071 76.24729462 19.82843994 76.24825134 19.12341309 76.24923706 C17.67415271 76.24991869 16.2248893 76.24806562 14.77563477 76.24389648 C12.55014221 76.23854791 10.32485148 76.24384199 8.09936523 76.25024414 C6.69441687 76.24958336 5.28946863 76.24830219 3.88452148 76.24633789 C2.59739258 76.24520996 1.31026367 76.24408203 -0.01586914 76.24291992 C-2.95922852 76.11352539 -2.95922852 76.11352539 -3.95922852 75.11352539 C-3.99986684 73.44735424 -4.00194952 71.77964444 -3.95922852 70.11352539 C-1.97922852 69.12352539 0.00077148 68.13352539 2.04077148 67.11352539 C2.04077148 47.64352539 2.04077148 28.17352539 2.04077148 8.11352539 C0.06077148 7.45352539 -1.91922852 6.79352539 -3.95922852 6.11352539 C-4.00194952 4.44740634 -3.99986684 2.77969654 -3.95922852 1.11352539 C-2.95922852 0.11352539 -2.95922852 0.11352539 0 0 Z " fill="#000000" transform="translate(359.959228515625,60.886474609375)"/>
<path d="M0 0 C10.56 0 21.12 0 32 0 C32 1.98 32 3.96 32 6 C31.67 6.33 31.34 6.66 31 7 C29.35 7 27.7 7 26 7 C25.67 14.59 25.34 22.18 25 30 C35.23 30 45.46 30 56 30 C55.67 22.41 55.34 14.82 55 7 C53.02 6.67 51.04 6.34 49 6 C49 4.02 49 2.04 49 0 C59.56 0 70.12 0 81 0 C82 3 82 3 81.3125 5.125 C80 7 80 7 77.875 7.75 C77.25625 7.8325 76.6375 7.915 76 8 C75.17333369 11.60410953 74.87798156 14.92198007 74.88647461 18.61645508 C74.88655014 19.71721878 74.88662567 20.81798248 74.88670349 21.95210266 C74.89186478 23.1293541 74.89702606 24.30660553 74.90234375 25.51953125 C74.9037587 26.73323898 74.90517365 27.94694672 74.90663147 29.19743347 C74.91222335 33.06914752 74.92477442 36.94080347 74.9375 40.8125 C74.94251605 43.43945229 74.94707877 46.06640549 74.95117188 48.69335938 C74.96219013 55.12892603 74.97892024 61.56445886 75 68 C76.98 68.33 78.96 68.66 81 69 C81.625 71.375 81.625 71.375 82 74 C80 76 80 76 77.03491211 76.24291992 C75.79491455 76.23881104 74.55491699 76.23470215 73.27734375 76.23046875 C72.61666397 76.23001053 71.95598419 76.22955231 71.27528381 76.2290802 C69.87906091 76.22605921 68.48284133 76.21817742 67.08666992 76.20581055 C64.94242502 76.18754196 62.79861151 76.18530094 60.65429688 76.18554688 C50.14743212 76.14743212 50.14743212 76.14743212 49 75 C48.95936168 73.33382885 48.957279 71.66611905 49 70 C51.97 69.01 51.97 69.01 55 68 C55.33 58.43 55.66 48.86 56 39 C45.77 39 35.54 39 25 39 C25.495 53.355 25.495 53.355 26 68 C27.98 68.66 29.96 69.32 32 70 C32.042721 71.66611905 32.04063832 73.33382885 32 75 C30.11680732 76.88319268 26.88069863 76.13054285 24.375 76.1328125 C23.71290527 76.13376923 23.05081055 76.13472595 22.36865234 76.13571167 C20.96647039 76.13639326 19.5642853 76.13454042 18.16210938 76.13037109 C16.00904287 76.12502246 13.85618498 76.1303167 11.703125 76.13671875 C10.34374954 76.13605796 8.9843742 76.13477679 7.625 76.1328125 C6.37976563 76.13168457 5.13453125 76.13055664 3.8515625 76.12939453 C1 76 1 76 0 75 C-0.04063832 73.33382885 -0.042721 71.66611905 0 70 C1.98 69.01 3.96 68.02 6 67 C6 47.2 6 27.4 6 7 C3.03 6.505 3.03 6.505 0 6 C0 4.02 0 2.04 0 0 Z " fill="#000000" transform="translate(817,61)"/>
<path d="M0 0 C1.10226929 -0.00084595 1.10226929 -0.00084595 2.22680664 -0.00170898 C9.87560082 0.14992457 16.99664079 1.93582039 23.875 5.375 C23.875 11.645 23.875 17.915 23.875 24.375 C21.565 24.375 19.255 24.375 16.875 24.375 C16.63265625 23.76011719 16.3903125 23.14523438 16.140625 22.51171875 C13.78982716 16.39691993 13.78982716 16.39691993 8.875 12.375 C3.32100077 10.70282819 -2.8144488 10.31599737 -8.125 12.75 C-11.5809487 15.48724751 -11.5809487 15.48724751 -12.625 19.75 C-12.51419687 23.46864259 -12.51419687 23.46864259 -9.8671875 25.36328125 C-4.03693287 28.93521726 3.05145563 30.29964115 9.578125 32.11132812 C17.5718613 34.49315483 24.02918886 37.47388082 28.3515625 44.91796875 C29.8835842 52.10932432 30.14295828 60.13998497 26.265625 66.59765625 C20.78594933 73.60117432 14.65938904 77.4596512 5.9375 78.83984375 C-5.22377928 80.03377867 -17.18371665 79.04132986 -27.125 73.375 C-29.15612681 70.32830979 -29.40330065 69.46802718 -29.57421875 65.99609375 C-29.61740234 65.15755859 -29.66058594 64.31902344 -29.70507812 63.45507812 C-29.75825195 62.14700195 -29.75825195 62.14700195 -29.8125 60.8125 C-29.85955078 59.93658203 -29.90660156 59.06066406 -29.95507812 58.15820312 C-30.26085283 51.64670567 -30.26085283 51.64670567 -29.125 49.375 C-26.8125 49.0625 -26.8125 49.0625 -24.125 49.375 C-22.41625174 51.56219777 -21.37012205 53.81233348 -20.265625 56.34765625 C-18.02440517 61.26180629 -16.06064646 63.74965614 -11.125 66.375 C-7.82164934 67.47611689 -5.22667863 67.57726528 -1.75 67.625 C-0.62851562 67.65078125 0.49296875 67.6765625 1.6484375 67.703125 C6.16542597 67.24377024 8.71106565 65.53893435 11.875 62.375 C12.11753813 60.16427023 12.11753813 60.16427023 12 57.75 C11.98195313 56.93273437 11.96390625 56.11546875 11.9453125 55.2734375 C11.92210937 54.64695313 11.89890625 54.02046875 11.875 53.375 C7.55843355 51.8838225 3.2536493 50.46213941 -1.15625 49.2734375 C-20.62948014 43.97982868 -20.62948014 43.97982868 -25.8359375 37.12109375 C-29.54089254 30.58113169 -30.28608475 24.43591138 -28.61328125 17.14453125 C-26.32278135 10.08767318 -21.44558114 6.04093706 -15.125 2.375 C-10.05568309 0.64174091 -5.32841547 -0.01041544 0 0 Z " fill="#000000" transform="translate(784.125,58.625)"/>
<path d="M0 0 C2 2 2 2 2.22705078 3.87939453 C2.21657715 4.62302246 2.20610352 5.36665039 2.1953125 6.1328125 C2.18886719 6.93847656 2.18242187 7.74414062 2.17578125 8.57421875 C2.15902344 9.41597656 2.14226562 10.25773437 2.125 11.125 C2.11597656 11.97449219 2.10695313 12.82398437 2.09765625 13.69921875 C2.07405647 15.79959884 2.03818483 17.89983444 2 20 C-0.31 20 -2.62 20 -5 20 C-5.24234375 19.38511719 -5.4846875 18.77023438 -5.734375 18.13671875 C-8.09598762 12.04249656 -8.09598762 12.04249656 -13 8 C-17.89829104 6.36723632 -22.88754338 6.44892436 -27.875 7.75 C-30.43098628 9.25352134 -31.61159163 10.36933152 -33 13 C-33.75 16 -33.75 16 -33 19 C-27.00895767 24.09136362 -19.25473955 25.63493401 -11.85351562 27.82421875 C-4.02265772 30.27655229 1.53881499 33.03034676 5.9375 40.125 C8.17714787 46.43800743 8.19221539 54.16228351 5.5 60.3125 C1.30471494 67.40312264 -5.05751623 71.95172907 -13 74 C-16.44898913 74.42429413 -19.84038756 74.4758173 -23.3125 74.4375 C-24.69973267 74.43049072 -24.69973267 74.43049072 -26.11499023 74.42333984 C-33.01131616 74.27411861 -38.82511319 73.21047246 -45 70 C-46.09634766 69.62488281 -46.09634766 69.62488281 -47.21484375 69.2421875 C-49 68 -49 68 -49.74609375 65.3984375 C-50.04035634 61.45984592 -50.1088988 57.57246676 -50.0625 53.625 C-50.05798828 52.88894531 -50.05347656 52.15289062 -50.04882812 51.39453125 C-50.03715142 49.59631842 -50.01922011 47.79814803 -50 46 C-47.525 45.505 -47.525 45.505 -45 45 C-42.91179074 47.50585112 -41.52023057 49.98764866 -40.1875 52.9375 C-38.13866261 57.16125708 -35.83138991 59.30987517 -32 62 C-26.77701755 63.74099415 -20.11260167 64.22988568 -14.9140625 62.17578125 C-12.68596168 60.71392973 -11.19816791 59.39633581 -10 57 C-9.56573303 53.01749002 -9.56573303 53.01749002 -11.05078125 49.45703125 C-13.89419722 47.33159206 -17.0687205 46.57218686 -20.4375 45.625 C-42.32040414 39.04205599 -42.32040414 39.04205599 -48 30 C-50.85204849 23.70172626 -50.59119489 16.40258068 -48.24609375 9.9140625 C-44.71466901 3.14672973 -39.00249959 -0.69973699 -32.02734375 -3.26953125 C-21.2579127 -5.86809074 -10.10457213 -4.3669602 0 0 Z " fill="#000000" transform="translate(346,63)"/>
<path d="M0 0 C1.92869656 4.491807 3.8565211 8.98398706 5.78356934 13.47650146 C6.4682256 15.07247591 7.15303946 16.66838276 7.8380127 18.26422119 C11.36327347 26.47834197 14.88309042 34.69427103 18.33984375 42.9375 C18.83572998 44.11844238 19.33161621 45.29938477 19.8425293 46.51611328 C20.76007392 48.70580606 21.67445517 50.89682789 22.58520508 53.08935547 C22.99536865 54.06791504 23.40553223 55.04647461 23.828125 56.0546875 C24.1777832 56.89499512 24.52744141 57.73530273 24.88769531 58.60107422 C25.99102239 61.09893873 25.99102239 61.09893873 27.63574219 63.68408203 C29 66 29 66 29 68 C30.7015625 68.4640625 30.7015625 68.4640625 32.4375 68.9375 C36 70 36 70 37 71 C37.125 73.5 37.125 73.5 37 76 C35.2670702 77.7329298 33.03785664 77.12820046 30.72851562 77.13894653 C29.99310547 77.1369223 29.25769531 77.13489807 28.5 77.1328125 C27.74912109 77.13376923 26.99824219 77.13472595 26.22460938 77.13571167 C24.63411373 77.13639338 23.04361533 77.13453972 21.453125 77.13037109 C19.01035345 77.12502267 16.56776579 77.13031634 14.125 77.13671875 C12.58333293 77.13605797 11.04166597 77.1347768 9.5 77.1328125 C8.76458984 77.13483673 8.02917969 77.13686096 7.27148438 77.13894653 C2.11495161 77.11495161 2.11495161 77.11495161 1 76 C0.95936168 74.33382885 0.957279 72.66611905 1 71 C3.475 70.01 3.475 70.01 6 69 C5.40656104 63.30298599 4.10935397 59.62494392 2 54 C-5.26 54 -12.52 54 -20 54 C-20.66 55.7325 -21.32 57.465 -22 59.25 C-22.556875 60.71179688 -22.556875 60.71179688 -23.125 62.203125 C-24.19905238 65.14783138 -24.19905238 65.14783138 -24 69 C-21.57327433 70.78969026 -21.57327433 70.78969026 -19 72 C-19.875 75.875 -19.875 75.875 -21 77 C-22.62257544 77.0991657 -24.24939831 77.13079777 -25.875 77.1328125 C-26.85984375 77.13410156 -27.8446875 77.13539063 -28.859375 77.13671875 C-29.89578125 77.13285156 -30.9321875 77.12898438 -32 77.125 C-33.55460938 77.13080078 -33.55460938 77.13080078 -35.140625 77.13671875 C-36.12546875 77.13542969 -37.1103125 77.13414062 -38.125 77.1328125 C-39.03507813 77.13168457 -39.94515625 77.13055664 -40.8828125 77.12939453 C-43 77 -43 77 -44 76 C-44.04063832 74.33382885 -44.042721 72.66611905 -44 71 C-43.07654785 70.64719971 -42.1530957 70.29439941 -41.20166016 69.9309082 C-37.30393452 67.58020574 -36.25912495 65.20811859 -34.7734375 61.10546875 C-34.50367599 60.4134285 -34.23391449 59.72138824 -33.95597839 59.00837708 C-33.37789519 57.51752873 -32.80937598 56.02294326 -32.24954224 54.52514648 C-31.36724562 52.16677259 -30.45873053 49.82007787 -29.54272461 47.47460938 C-26.79822833 40.42465338 -24.12728611 33.34753555 -21.47613525 26.26203918 C-20.43358277 23.49009441 -19.37259417 20.72543021 -18.3081665 17.96182251 C-17.57535897 16.03383151 -16.87310236 14.09646296 -16.17138672 12.15698242 C-12.49640613 2.57753303 -12.49640613 2.57753303 -8.46484375 0.6875 C-5.48754149 0.09673878 -3.00766288 -0.05659667 0 0 Z M-9 25 C-9.98838433 27.0372203 -10.96532252 29.07999607 -11.9375 31.125 C-12.48277344 32.26195312 -13.02804687 33.39890625 -13.58984375 34.5703125 C-15.28391223 38.3279953 -15.28391223 38.3279953 -16 44 C-11.05 44 -6.1 44 -1 44 C-3.31 37.73 -5.62 31.46 -8 25 C-8.33 25 -8.66 25 -9 25 Z " fill="#000000" transform="translate(944,60)"/>
<path d="M0 0 C5.6316999 0.89595226 5.6316999 0.89595226 7.86216736 1.52607727 C10.43961092 2.09745459 12.81465972 2.13476917 15.45532227 2.14526367 C16.54647842 2.15164352 17.63763458 2.15802338 18.76185608 2.16459656 C19.93485764 2.16570938 21.10785919 2.1668222 22.31640625 2.16796875 C24.12841774 2.17296135 24.12841774 2.17296135 25.97703552 2.17805481 C28.52985249 2.18311614 31.08267607 2.18546338 33.63549805 2.18530273 C37.55072834 2.18749341 41.46567878 2.20566932 45.38085938 2.22460938 C47.85937403 2.22754255 50.33789003 2.22952785 52.81640625 2.23046875 C53.99143204 2.23765427 55.16645782 2.24483978 56.37709045 2.25224304 C57.46509445 2.24916641 58.55309845 2.24608978 59.67407227 2.24291992 C60.6324147 2.24434494 61.59075714 2.24576996 62.57814026 2.24723816 C65.26022115 2.16403577 65.26022115 2.16403577 68 0 C69.98 0 71.96 0 74 0 C74 6.93 74 13.86 74 21 C72.02 21 70.04 21 68 21 C67.01 17.535 67.01 17.535 66 14 C59.07 13.67 52.14 13.34 45 13 C45.495 15.97 45.495 15.97 46 19 C46.0758393 20.7186062 46.10820736 22.43966575 46.09765625 24.15991211 C46.09435303 25.13790268 46.0910498 26.11589325 46.08764648 27.1235199 C46.07934814 28.16428177 46.0710498 29.20504364 46.0625 30.27734375 C46.05871338 31.3620546 46.05492676 32.44676544 46.05102539 33.56434631 C46.03472663 38.18934793 46.00657827 42.81426 45.97949219 47.43920898 C45.96137416 50.82274972 45.9493013 54.20627602 45.9375 57.58984375 C45.92920166 58.62858139 45.92090332 59.66731903 45.91235352 60.73753357 C45.89483213 65.94183918 46.08735842 70.87312814 47 76 C49.64 76.99 52.28 77.98 55 79 C55.042721 80.66611905 55.04063832 82.33382885 55 84 C53.23927416 85.76072584 50.9210371 85.12834784 48.5760498 85.13894653 C47.4401239 85.13591019 47.4401239 85.13591019 46.28125 85.1328125 C45.12163757 85.13424759 45.12163757 85.13424759 43.93859863 85.13571167 C42.30102456 85.13639341 40.66344781 85.13453957 39.02587891 85.13037109 C36.51068079 85.12502271 33.99566127 85.13031626 31.48046875 85.13671875 C29.89322877 85.13605797 28.3059889 85.1347768 26.71875 85.1328125 C25.96146606 85.13483673 25.20418213 85.13686096 24.4239502 85.13894653 C19.11495132 85.11495132 19.11495132 85.11495132 18 84 C17.95936168 82.33382885 17.957279 80.66611905 18 79 C20.64 77.68 23.28 76.36 26 75 C26.33 54.54 26.66 34.08 27 13 C20.73 13.33 14.46 13.66 8 14 C5.90959231 17.45037107 5.90959231 17.45037107 4 21 C2.02 21 0.04 21 -2 21 C-2.3690205 6.21867882 -2.3690205 6.21867882 0 0 Z " fill="#010101" transform="translate(471,52)"/>
</svg>
