<?xml version="1.0" encoding="UTF-8"?>
<svg version="1.1" xmlns="http://www.w3.org/2000/svg" width="2048" height="512">
<path d="M0 0 C3.05224562 3.18632359 4.24800201 6.95150123 5.6875 11.0625 C6.12449219 12.29097656 6.56148437 13.51945313 7.01171875 14.78515625 C8 18 8 18 8 21 C8.66 21 9.32 21 10 21 C10.31453125 21.90621094 10.6290625 22.81242187 10.953125 23.74609375 C13.08726913 29.82069074 15.26830167 35.80464451 17.96484375 41.65625 C19.74132411 45.67846968 21.27193649 49.79483838 22.828125 53.90625 C23.53254144 55.7659094 24.2478431 57.62157476 24.984375 59.46875 C26.35071661 62.92327408 27 65.22254977 27 69 C27.66 69 28.32 69 29 69 C29.32613281 69.85722656 29.65226562 70.71445313 29.98828125 71.59765625 C32.65195818 78.58592639 32.65195818 78.58592639 35.5 85.5 C37.37486755 89.87469094 39.03705628 94.32049819 40.7265625 98.76953125 C42.11262959 102.28571984 43.6502612 105.69875922 45.30078125 109.09765625 C46 111 46 111 46 115 C46.66 115 47.32 115 48 115 C48.27263672 115.97839844 48.27263672 115.97839844 48.55078125 116.9765625 C49.69896994 120.96872624 50.8242587 124.64851739 52.6875 128.375 C54 131 54 131 54 135 C54.66 135 55.32 135 56 135 C56.61875 136.7015625 56.61875 136.7015625 57.25 138.4375 C58.70022278 142.30932119 60.3246261 146.07667741 62.03515625 149.83984375 C62.88670779 151.74635389 63.66779388 153.68400195 64.4375 155.625 C66.37298749 159.80565298 68.74075771 164.87037886 73 167 C73 167.66 73 168.32 73 169 C75.31 169.66 77.62 170.32 80 171 C80 171.66 80 172.32 80 173 C86.53775 172.65715235 92.27233286 172.34113916 98 169 C100.76604344 165.28246578 101.37496421 162.62596328 101.3742218 158.03477478 C101.38123611 156.83887222 101.38825043 155.64296967 101.39547729 154.41082764 C101.38783356 153.10728333 101.38018982 151.80373901 101.37231445 150.46069336 C101.37474368 149.06744617 101.37846427 147.67420073 101.38337708 146.28096008 C101.39277103 142.50415516 101.38337381 138.72761006 101.37004495 134.95082545 C101.35871777 130.99688481 101.36283888 127.04295672 101.36479187 123.08900452 C101.36567434 116.45048789 101.35460342 109.81207347 101.33618164 103.17358398 C101.315006 95.4987661 101.31150627 87.82409783 101.3177436 80.14925665 C101.32343795 72.76437145 101.31779132 65.37953893 101.30657005 57.99466133 C101.3019259 54.85240263 101.30104941 51.71017616 101.3031559 48.56791496 C101.3050394 44.86853722 101.29693023 41.16931181 101.2810955 37.4699688 C101.2748289 35.46453689 101.27836005 33.45908189 101.28216553 31.4536438 C101.27508072 30.26056107 101.26799591 29.06747833 101.26069641 27.83824158 C101.25864354 26.80126601 101.25659067 25.76429045 101.25447559 24.69589138 C100.99446649 21.94137854 100.50697053 20.30396136 99 18 C97.00354356 16.9816652 97.00354356 16.9816652 94.6875 16.4375 C90.71978571 15.26827019 86.99707435 13.99707435 84 11 C83.64102564 4.53846154 83.64102564 4.53846154 86 1 C87.81392765 0.62526989 87.81392765 0.62526989 90.05226135 0.6257782 C90.90024796 0.61876389 91.74823456 0.61174957 92.62191772 0.60452271 C94.02058578 0.61598831 94.02058578 0.61598831 95.44750977 0.62768555 C96.42820938 0.62403488 97.408909 0.62038422 98.41932678 0.61662292 C101.6768603 0.60848672 104.93390087 0.62215995 108.19140625 0.63671875 C110.45385233 0.63723728 112.71629887 0.63671986 114.97874451 0.63520813 C119.73109629 0.63529801 124.483279 0.64575419 129.2355957 0.66381836 C135.31280214 0.68641548 141.3897594 0.68706762 147.46699619 0.68030071 C152.14515882 0.67694887 156.82326522 0.6836152 161.50141716 0.69342995 C163.7408004 0.69726811 165.98018992 0.69843592 168.21957588 0.6968441 C171.36207968 0.69647093 174.50427178 0.70916714 177.64672852 0.7253418 C179.02414215 0.72162567 179.02414215 0.72162567 180.42938232 0.71783447 C188.70148341 0.78537456 196.02441376 2.41666576 203.75 5.375 C204.81734375 5.77460938 205.8846875 6.17421875 206.984375 6.5859375 C210.09819978 8.04604705 212.38832762 9.78211531 215 12 C216.31138904 12.70885894 217.63777017 13.39456452 219 14 C219 14.66 219 15.32 219 16 C219.99 16.33 220.98 16.66 222 17 C222.33 17.99 222.66 18.98 223 20 C223.45375 20.45375 223.9075 20.9075 224.375 21.375 C230.92698135 27.92698135 232.0981835 38.61550856 232.375 47.5 C232.06328563 57.09230143 230.05828351 66.77546268 225 75 C224.401875 76.03125 223.80375 77.0625 223.1875 78.125 C220.9288895 81.09345952 218.56912908 83.27261948 215.68359375 85.60546875 C213.96174816 86.97943418 213.96174816 86.97943418 212.421875 88.6328125 C210.69678293 90.29155487 209.32696493 90.59879915 207 91 C207 91.66 207 92.32 207 93 C202.05 95.475 202.05 95.475 197 98 C197.7425 99.423125 197.7425 99.423125 198.5 100.875 C200 104 200 104 200 106 C200.66 106 201.32 106 202 106 C203.296875 107.90625 203.296875 107.90625 204.75 110.5 C206.74993438 113.97408748 208.82119652 117.1728573 211.3125 120.3125 C213.52286053 123.15768993 214.76877555 125.30040886 215 129 C215.66 129 216.32 129 217 129 C219 132 219 132 219 135 C219.66 135 220.32 135 221 135 C222.1484375 136.5390625 222.1484375 136.5390625 223.375 138.625 C224.95329258 141.26641548 226.5554949 143.84891437 228.3125 146.375 C230 149 230 149 230 151 C230.99 151.33 231.98 151.66 233 152 C234.75390625 153.92578125 234.75390625 153.92578125 236.5625 156.3125 C237.46162109 157.48232422 237.46162109 157.48232422 238.37890625 158.67578125 C240 161 240 161 241.08984375 163.25 C241.85173889 165.20584088 241.85173889 165.20584088 244 165.6875 C244.99 165.8421875 244.99 165.8421875 246 166 C246.66 166.33 247.32 166.66 248 167 C248 167.66 248 168.32 248 169 C249.98 169.66 251.96 170.32 254 171 C254 171.66 254 172.32 254 173 C255.42164683 172.4289111 256.83713855 171.84249029 258.25 171.25 C259.03890625 170.92515625 259.8278125 170.6003125 260.640625 170.265625 C267.78228011 166.43467094 271.4232256 158.413796 274.05078125 151.05859375 C274.75407632 148.7153879 275.41276476 146.37469689 276 144 C276.66 144 277.32 144 278 144 C278.144375 143.071875 278.28875 142.14375 278.4375 141.1875 C279 138 279 138 280 135 C280.66 135 281.32 135 282 135 C282.061875 133.96875 282.12375 132.9375 282.1875 131.875 C282.97004443 125.30636946 285.66177115 119.14324333 288 113 C288.66 113 289.32 113 290 113 C290.103125 111.783125 290.20625 110.56625 290.3125 109.3125 C290.54354115 106.58621445 290.9535167 105.07651464 292.390625 102.7109375 C294.35631416 99.3998009 295.37376631 95.98240292 296.4375 92.3125 C298.31282734 86.06284096 300.41827021 79.99999771 303 74 C303.66 74 304.32 74 305 74 C305.0825 72.88625 305.165 71.7725 305.25 70.625 C305.78748474 66.30998167 307.1923334 62.70379635 308.890625 58.72265625 C310.48511579 54.80941652 311.71806858 50.79470658 312.97265625 46.76171875 C314 44 314 44 315.49609375 41.55078125 C317.23524842 38.60099424 318.07669746 35.79311239 319 32.5 C320.21264187 28.17491067 321.68430509 24.8262021 324 21 C324.76305262 18.57904795 324.76305262 18.57904795 325.1875 16.1875 C325.34605469 15.39730469 325.50460937 14.60710937 325.66796875 13.79296875 C325.77753906 13.20128906 325.88710937 12.60960937 326 12 C326.66 12 327.32 12 328 12 C328 11.0925 328 10.185 328 9.25 C329.09265649 5.69886641 329.30096582 5.40621434 332.375 3.75 C338.49930723 1.10165093 346.31774731 -0.84220764 353 0 C356.156141 2.98493524 357.15319558 6.89277005 358.5 10.9375 C359.66030468 14.4146951 360.71704361 17.53137488 362.61328125 20.671875 C364.66257235 24.11237499 364.66477748 27.04437425 365 31 C365.66 31 366.32 31 367 31 C367.391875 32.0725 367.78375 33.145 368.1875 34.25 C370.9081495 41.50078758 373.91039878 48.64247358 377.125 55.6875 C378.78943892 59.38550743 380.10864431 63.13039253 381.33984375 66.9921875 C381.88339489 68.64535486 382.52314846 70.26656996 383.1875 71.875 C384 74 384 74 384 77 C384.66 77 385.32 77 386 77 C386.27263672 78.10408203 386.27263672 78.10408203 386.55078125 79.23046875 C387.86476013 84.33140215 389.15510228 88.52944643 392 93 C392 94.32 392 95.64 392 97 C392.66 97 393.32 97 394 97 C394.25523437 97.94359375 394.25523437 97.94359375 394.515625 98.90625 C395.71220977 103.13248557 396.92990616 107.11459311 399 111 C400.54993739 113.91271253 401.5604824 116.6939531 402.4375 119.875 C403.71555612 124.43549535 405.61379254 128.36968455 407.8046875 132.5546875 C409.28928238 135.59179991 410.31020323 138.67115614 411.30859375 141.89453125 C411.98633402 143.95838439 412.79537345 145.89572388 413.6875 147.875 C415 151 415 151 415 154 C415.66 154 416.32 154 417 154 C417.4125 155.051875 417.825 156.10375 418.25 157.1875 C420.95955368 163.46758704 425.22159435 168.11079717 431.375 171.1875 C434.55235051 172.17096563 437.70870489 172.55694104 441 173 C442 174 442 174 442.1328125 176.25 C442.12894531 177.61125 442.12894531 177.61125 442.125 179 C442.12757813 179.9075 442.13015625 180.815 442.1328125 181.75 C442 184 442 184 441 185 C438.57694139 185.11091962 436.18211081 185.15738292 433.75805664 185.16113281 C433.0003447 185.16609772 432.24263275 185.17106262 431.46195984 185.17617798 C428.94468289 185.19083457 426.42746893 185.19760701 423.91015625 185.203125 C422.16759742 185.20887313 420.42503862 185.2146309 418.68247986 185.22039795 C415.0247264 185.23091759 411.36699499 185.23675409 407.70922852 185.24023438 C403.01344632 185.24572426 398.31795336 185.26975864 393.622262 185.29820633 C390.02183673 185.31679355 386.4214817 185.32203618 382.8210125 185.32357025 C381.0893845 185.32660568 379.357758 185.33466398 377.62617683 185.34775543 C375.20767072 185.36473636 372.78987878 185.36295569 370.37133789 185.35644531 C369.65074188 185.3656601 368.93014587 185.37487488 368.18771362 185.3843689 C366.19496155 185.36749268 366.19496155 185.36749268 363 185 C360.68667514 181.53001271 360.66042437 180.07490752 361 176 C361.66 175.01 362.32 174.02 363 173 C364.96931324 172.71413195 366.94363866 172.43319377 368.9296875 172.30859375 C371.42517774 172.04613059 371.42517774 172.04613059 375 170 C375 165.38 375 160.76 375 156 C374.34 156 373.68 156 373 156 C372.76925781 155.17757812 372.53851562 154.35515625 372.30078125 153.5078125 C370.40489246 147.01832755 368.28759905 141.06361063 365.05078125 135.12109375 C364.03439107 133.06942138 363.51610489 131.21904794 363 129 C356.23785817 128.12168135 349.65419372 127.86651426 342.83984375 127.90234375 C341.80936417 127.9037587 340.77888458 127.90517365 339.71717834 127.90663147 C336.45725481 127.91218553 333.19740243 127.9247293 329.9375 127.9375 C327.71419371 127.94252094 325.49088633 127.94708281 323.26757812 127.95117188 C317.8450282 127.96213987 312.42251919 127.9788316 307 128 C306.59297852 129.08974121 306.18595703 130.17948242 305.76660156 131.30224609 C305.22464267 132.75098902 304.68264862 134.19971879 304.140625 135.6484375 C303.739646 136.72242798 303.739646 136.72242798 303.33056641 137.81811523 C301.84986989 141.77343147 300.33554396 145.71014925 298.75 149.625 C298.2859375 150.79095703 298.2859375 150.79095703 297.8125 151.98046875 C297.14451471 153.64079757 296.45075206 155.29073266 295.75 156.9375 C294.60790913 161.6010377 294.84700703 166.22321946 295 171 C295.99 171 296.98 171 298 171 C298 171.66 298 172.32 298 173 C298.62648438 172.96519531 299.25296875 172.93039062 299.8984375 172.89453125 C300.71570312 172.86746094 301.53296875 172.84039062 302.375 172.8125 C303.18710938 172.77769531 303.99921875 172.74289062 304.8359375 172.70703125 C305.55007813 172.80371094 306.26421875 172.90039062 307 173 C309.44897847 176.67346771 309.31537716 178.66356399 309 183 C306.4147793 185.5852207 305.3492827 185.26934149 301.75024414 185.31884766 C300.65051773 185.33871735 299.55079132 185.35858704 298.41773987 185.37905884 C296.61961098 185.39638565 296.61961098 185.39638565 294.78515625 185.4140625 C292.92593788 185.44311172 292.92593788 185.44311172 291.02915955 185.4727478 C287.71397111 185.52254908 284.3988956 185.56369167 281.08355713 185.60089111 C277.78540779 185.64023424 274.48745252 185.69199653 271.18945312 185.7421875 C263.79313997 185.85052131 256.39677941 185.93148767 249 186 C248.00313171 186.01027222 247.00626343 186.02054443 245.97918701 186.03112793 C243.38064706 186.05588408 240.78221543 186.07286197 238.18359375 186.0859375 C237.46833023 186.09291656 236.75306671 186.09989563 236.01612854 186.10708618 C224.35222343 186.12857069 214.17171549 184.61057243 205 177 C205 176.34 205 175.68 205 175 C203.68 174.67 202.36 174.34 201 174 C201 173.34 201 172.68 201 172 C200.01 171.67 199.02 171.34 198 171 C195.95703125 168.56640625 195.95703125 168.56640625 193.8125 165.5625 C193.09707031 164.57378906 192.38164063 163.58507812 191.64453125 162.56640625 C190 160 190 160 190 158 C189.34 158 188.68 158 188 158 C187.34 156.02 186.68 154.04 186 152 C185.34 152 184.68 152 184 152 C182.4921875 149.8828125 182.4921875 149.8828125 180.875 147.125 C180.06675781 145.76761719 180.06675781 145.76761719 179.2421875 144.3828125 C178 142 178 142 178 140 C177.34 140 176.68 140 176 140 C175.68546875 139.34773437 175.3709375 138.69546875 175.046875 138.0234375 C172.17204414 132.11704702 172.17204414 132.11704702 168.6875 126.5625 C167 124 167 124 167 121 C166.34 121 165.68 121 165 121 C161.15044248 114.32743363 161.15044248 114.32743363 159.9375 111.6875 C158.97586748 109.65316523 158.97586748 109.65316523 156 108 C153.61322924 107.70547416 151.21373906 107.5071783 148.8125 107.375 C147.54019531 107.30023438 146.26789063 107.22546875 144.95703125 107.1484375 C143.49330078 107.07496094 143.49330078 107.07496094 142 107 C141.97452831 113.9559653 141.95708218 120.91191846 141.94506836 127.86791992 C141.94005694 130.23153127 141.93324604 132.59513954 141.92456055 134.95874023 C141.91235474 138.36703248 141.90673963 141.77528354 141.90234375 145.18359375 C141.89718246 146.23083115 141.89202118 147.27806854 141.88670349 148.35704041 C141.55624551 158.74576534 141.55624551 158.74576534 144.3125 168.5 C146.20431829 170.18161626 147.51277859 170.65693498 150 171 C150 171.66 150 172.32 150 173 C152.64 173 155.28 173 158 173 C159.95143115 175.86975169 159.98930952 177.12614763 159.6875 180.6875 C159 184 159 184 158 185 C156.08905061 185.09658904 154.17448134 185.12187192 152.26109314 185.12025452 C151.01442368 185.12162918 149.76775421 185.12300385 148.48330688 185.12442017 C147.08905006 185.12088056 145.69479347 185.11724574 144.30053711 185.11352539 C142.84228009 185.11324353 141.38402293 185.11340124 139.92576599 185.1139679 C135.95486515 185.1142559 131.98399425 185.10835877 128.01310039 185.10139394 C123.86774899 185.09516081 119.72239698 185.09455663 115.57704163 185.09336853 C107.72180673 185.09025509 99.86658568 185.08204154 92.01135689 185.07201904 C83.07075601 185.06085829 74.13015448 185.05534755 65.18954837 185.05032361 C46.79302439 185.03985893 28.3965133 185.02225925 10 185 C9.31056111 180.66419545 8.835141 177.27114968 10 173 C11.2375 172.87625 12.475 172.7525 13.75 172.625 C17.20672799 172.2793272 18.68890596 171.65554702 22 170 C22 165.38 22 160.76 22 156 C21.34 156 20.68 156 20 156 C19.49242138 154.58603098 18.99425075 153.16868271 18.5 151.75 C18.2215625 150.96109375 17.943125 150.1721875 17.65625 149.359375 C17 147 17 147 17 143 C16.34 143 15.68 143 15 143 C14.81824219 142.33613281 14.63648438 141.67226563 14.44921875 140.98828125 C14.19785156 140.10527344 13.94648437 139.22226562 13.6875 138.3125 C13.44386719 137.44238281 13.20023438 136.57226562 12.94921875 135.67578125 C11.90379834 132.72881424 10.88619537 130.50495822 9 128 C6.4545041 127.27663672 6.4545041 127.27663672 3.51879883 127.43237305 C2.39786331 127.4327507 1.2769278 127.43312836 0.12202454 127.43351746 C-1.08742325 127.45932388 -2.29687103 127.48513031 -3.54296875 127.51171875 C-4.78170242 127.51879349 -6.0204361 127.52586823 -7.29670715 127.53315735 C-10.58683916 127.55642359 -13.875747 127.60132834 -17.16546631 127.65667725 C-20.52356994 127.7078663 -23.88185288 127.73067041 -27.24023438 127.75585938 C-33.82730291 127.81104659 -40.41355131 127.89476382 -47 128 C-47.13607666 129.0938501 -47.27215332 130.1877002 -47.41235352 131.31469727 C-48.02415315 135.15147143 -49.20256077 137.58530493 -51 141 C-51.89733836 143.51627523 -52.75379288 146.01902683 -53.5625 148.5625 C-55.79710755 155.50154451 -55.79710755 155.50154451 -57.12890625 158.7734375 C-58.28489175 161.72819864 -58.4014472 163.85533024 -58 167 C-56.08333079 169.25065102 -56.08333079 169.25065102 -54 171 C-54 171.66 -54 172.32 -54 173 C-52.081875 172.9690625 -52.081875 172.9690625 -50.125 172.9375 C-46.25 172.875 -46.25 172.875 -44 174 C-43.97311849 175.64574566 -43.95365877 177.29161413 -43.9375 178.9375 C-43.92589844 179.85402344 -43.91429687 180.77054688 -43.90234375 181.71484375 C-44 184 -44 184 -45 185 C-46.83572631 185.09905152 -48.67527575 185.12799207 -50.51367188 185.12939453 C-51.69159302 185.13254669 -52.86951416 185.13569885 -54.08312988 185.13894653 C-55.36538452 185.1369223 -56.64763916 185.13489807 -57.96875 185.1328125 C-59.27453003 185.13376923 -60.58031006 185.13472595 -61.92565918 185.13571167 C-64.69312722 185.13718833 -67.46056304 185.13503511 -70.22802734 185.13037109 C-73.78262649 185.12467381 -77.33715014 185.12795298 -80.89174652 185.13394356 C-84.27158714 185.13841747 -87.65140723 185.13528886 -91.03125 185.1328125 C-92.31350464 185.13483673 -93.59575928 185.13686096 -94.91687012 185.13894653 C-96.68375183 185.13421829 -96.68375183 185.13421829 -98.48632812 185.12939453 C-99.52921997 185.12859894 -100.57211182 185.12780334 -101.64660645 185.12698364 C-104 185 -104 185 -105 184 C-105.16796875 182.00390625 -105.16796875 182.00390625 -105.1875 179.5625 C-105.20167969 178.75941406 -105.21585938 177.95632813 -105.23046875 177.12890625 C-105 175 -105 175 -103 173 C-99.66660937 171.97434135 -96.34044477 171.07642638 -92.9375 170.3125 C-87.55577376 167.90789892 -84.42950538 163.38558286 -82.125 158.0625 C-81.75375 157.051875 -81.3825 156.04125 -81 155 C-80.34 155 -79.68 155 -79 155 C-78.855625 153.741875 -78.71125 152.48375 -78.5625 151.1875 C-78.26251314 148.57332877 -77.84186703 146.52560108 -77 144 C-76.34 144 -75.68 144 -75 144 C-74.9175 143.236875 -74.835 142.47375 -74.75 141.6875 C-73.19949566 134.06418698 -70.02495546 126.98689989 -66.9375 119.875 C-65.00853055 115.42872543 -63.23647084 111.02928637 -61.77734375 106.41015625 C-59.52725505 99.43375059 -56.97870423 92.53935323 -54.375 85.6875 C-52.81015074 81.49085879 -51.38952513 77.25726848 -50 73 C-49.34 73 -48.68 73 -48 73 C-47.9175 71.88625 -47.835 70.7725 -47.75 69.625 C-47.21237627 65.30886581 -45.80584092 61.70175695 -44.109375 57.71875 C-42.52511161 53.83618903 -41.28615506 49.8573165 -40.02734375 45.859375 C-39 43 -39 43 -37.50390625 40.06640625 C-35.40190894 35.78051563 -34.30840671 31.32474973 -33.0625 26.73046875 C-32.711875 25.82941406 -32.36125 24.92835938 -32 24 C-31.01 23.67 -30.02 23.34 -29 23 C-28.9175 21.700625 -28.835 20.40125 -28.75 19.0625 C-27.47915165 8.99102684 -27.47915165 8.99102684 -24 5 C-19.79581961 2.99984602 -15.54720417 1.93504321 -11 1 C-10.10410156 0.81050781 -9.20820312 0.62101563 -8.28515625 0.42578125 C-5.39222418 -0.1132437 -2.93432576 -0.31894845 0 0 Z M141 19 C140.90567015 21.20867831 140.88257569 23.42041521 140.88647461 25.63110352 C140.88632858 26.32375305 140.88618256 27.01640259 140.8860321 27.7300415 C140.88673126 30.02969446 140.89452372 32.32926737 140.90234375 34.62890625 C140.90420792 36.21931412 140.90563183 37.80972257 140.90663147 39.40013123 C140.91045671 43.5939593 140.92028705 47.78775295 140.93133545 51.98156738 C140.94154943 56.25788914 140.94612906 60.53421644 140.95117188 64.81054688 C140.96190931 73.20704708 140.97898581 81.60351926 141 90 C144.32744888 89.89055616 147.65386305 89.76137001 150.98046875 89.62890625 C151.91242065 89.59849243 152.84437256 89.56807861 153.80456543 89.53674316 C161.68429141 89.2074875 168.55985292 87.68845651 176 85 C176 84.34 176 83.68 176 83 C176.70125 82.814375 177.4025 82.62875 178.125 82.4375 C184.45201523 79.27399238 187.72022515 73.4793601 190 67 C191.20301992 62.38842363 191.18361387 57.85831126 191.1875 53.125 C191.20586914 51.95904297 191.20586914 51.95904297 191.22460938 50.76953125 C191.24620897 42.20169086 188.74587682 34.72290812 184.4375 27.3125 C179.14811828 22.29436862 171.72407076 20.71261085 164.71484375 19.39453125 C163 19 163 19 162 18 C160.52347336 17.90119203 159.04232764 17.86920755 157.5625 17.8671875 C156.66789062 17.86589844 155.77328125 17.86460937 154.8515625 17.86328125 C153.44003906 17.86908203 153.44003906 17.86908203 152 17.875 C151.05898437 17.87113281 150.11796875 17.86726563 149.1484375 17.86328125 C147.80652344 17.86521484 147.80652344 17.86521484 146.4375 17.8671875 C145.19806641 17.86887939 145.19806641 17.86887939 143.93359375 17.87060547 C141.99320961 17.78735193 141.99320961 17.78735193 141 19 Z M-19 53 C-19.66 55.31 -20.32 57.62 -21 60 C-21.66 60 -22.32 60 -23 60 C-23.33 61.2375 -23.66 62.475 -24 63.75 C-24.185625 64.44609375 -24.37125 65.1421875 -24.5625 65.859375 C-25.13349349 68.28901861 -25.13349349 68.28901861 -25 72 C-25.66 72 -26.32 72 -27 72 C-27.18175781 72.61746094 -27.36351562 73.23492187 -27.55078125 73.87109375 C-28.3560442 76.58421045 -29.17522518 79.29275302 -30 82 C-30.2165625 82.71800781 -30.433125 83.43601562 -30.65625 84.17578125 C-32.58475019 90.27121936 -35.16235868 96.04521665 -37.79296875 101.86328125 C-39.23942323 105.06203351 -39.23942323 105.06203351 -39 109 C-25.14 109 -11.28 109 3 109 C1.34311156 103.11422207 1.34311156 103.11422207 -0.9375 97.6875 C-2.7899921 93.66004495 -4.06728712 89.61771636 -5.27734375 85.359375 C-5.93876377 83.19992803 -6.71235433 81.18837282 -7.625 79.125 C-8.691291 76.70161136 -9.48436 74.5782 -10 72 C-10.66 72 -11.32 72 -12 72 C-12.144375 70.7625 -12.28875 69.525 -12.4375 68.25 C-12.78688502 65.43495501 -13.20379366 62.7298503 -14 60 C-14.66 60 -15.32 60 -16 60 C-16.66 57.69 -17.32 55.38 -18 53 C-18.33 53 -18.66 53 -19 53 Z M334 53 C331.63019987 55.95377498 331.63019987 55.95377498 332 60 C331.34 60 330.68 60 330 60 C329.85304688 60.69222656 329.70609375 61.38445312 329.5546875 62.09765625 C327.96699223 69.02329252 325.792774 75.4171966 322.98193359 81.92211914 C321.56577793 85.26262242 321 87.29136683 321 91 C320.34 91 319.68 91 319 91 C317.68373308 94.61973402 317 97.09567131 317 101 C316.34 101 315.68 101 315 101 C314.67 103.64 314.34 106.28 314 109 C327.86 109 341.72 109 356 109 C354.66692525 104.33423837 353.4293991 100.46614798 351.5 96.125 C349.3543246 91.0994358 347.98402885 86.36743009 347 81 C346.34 81 345.68 81 345 81 C344.82984375 80.40574219 344.6596875 79.81148437 344.484375 79.19921875 C341.8676742 70.24954528 338.78779616 61.52254137 335 53 C334.67 53 334.34 53 334 53 Z " fill="#FDFDFD" transform="translate(1083,134)"/>
<path d="M0 0 C1.06144478 0.00674492 1.06144478 0.00674492 2.14433289 0.0136261 C4.48403316 0.03270805 6.82272931 0.07401183 9.16210938 0.11669922 C10.78730174 0.13712258 12.41250583 0.15663121 14.03771973 0.17526245 C17.44415508 0.21781207 20.85019777 0.27132194 24.25634766 0.33251953 C28.62441918 0.41014113 32.99231025 0.46085518 37.36084747 0.50340462 C40.71700851 0.53901101 44.07284606 0.58873429 47.42875671 0.64275742 C49.03946516 0.66700388 50.65024563 0.68687061 52.26106262 0.70230484 C54.51179359 0.726016 56.76138638 0.7686713 59.01171875 0.81640625 C60.93340881 0.84663376 60.93340881 0.84663376 62.8939209 0.87747192 C66.00585938 1.29638672 66.00585938 1.29638672 67.92736816 2.60372925 C69.71116853 5.40334688 69.23978136 8.07995947 69.00585938 11.29638672 C68.67585938 11.95638672 68.34585938 12.61638672 68.00585938 13.29638672 C65.67773438 13.85888672 65.67773438 13.85888672 62.75585938 14.29638672 C60.83232974 14.58751553 58.91471064 14.92087499 57.00585938 15.29638672 C56.10351562 15.44076172 55.20117188 15.58513672 54.27148438 15.73388672 C51.55227106 17.60920624 51.53690339 18.18264357 50.89013672 21.32128906 C49.51864757 28.97014871 49.64791141 36.71608951 49.59179688 44.46044922 C49.57305434 46.10526467 49.55347871 47.75007081 49.53311157 49.39486694 C49.48210984 53.69206215 49.44231461 57.98928842 49.40496826 62.28662109 C49.36472652 66.68448366 49.31372693 71.08222059 49.26367188 75.47998047 C49.16729178 84.08536291 49.08276758 92.69080831 49.00585938 101.29638672 C49.84890625 100.93544922 50.69195312 100.57451172 51.56054688 100.20263672 C53.20410156 99.50654297 53.20410156 99.50654297 54.88085938 98.79638672 C56.51667969 98.10029297 56.51667969 98.10029297 58.18554688 97.39013672 C61.00585938 96.29638672 61.00585938 96.29638672 63.00585938 96.29638672 C63.50085938 94.81138672 63.50085938 94.81138672 64.00585938 93.29638672 C65.33919271 92.96305339 66.67252604 92.62972005 68.00585938 92.29638672 C68.50085938 90.81138672 68.50085938 90.81138672 69.00585938 89.29638672 C70.94335938 87.10888672 70.94335938 87.10888672 73.00585938 85.29638672 C73.66585937 85.29638672 74.32585937 85.29638672 75.00585938 85.29638672 C75.66585937 83.64638672 76.32585937 81.99638672 77.00585938 80.29638672 C77.66585937 80.29638672 78.32585937 80.29638672 79.00585938 80.29638672 C79.26496094 79.73048828 79.5240625 79.16458984 79.79101562 78.58154297 C81.12657737 76.06931267 82.68468561 73.96910435 84.44335938 71.73388672 C85.04019531 70.96947266 85.63703125 70.20505859 86.25195312 69.41748047 C87.76072377 67.59284247 89.32560922 65.95837329 91.00585938 64.29638672 C91.87025081 63.24218826 92.72481734 62.17984133 93.56835938 61.10888672 C94.37273437 60.18076172 95.17710937 59.25263672 96.00585938 58.29638672 C96.66585937 58.29638672 97.32585937 58.29638672 98.00585938 58.29638672 C98.12058594 57.71244141 98.2353125 57.12849609 98.35351562 56.52685547 C99.05286006 54.13568378 99.97891436 52.61217797 101.44335938 50.60888672 C101.87519531 50.00689453 102.30703125 49.40490234 102.75195312 48.78466797 C104.00585938 47.29638672 104.00585938 47.29638672 106.00585938 46.29638672 C106.33585937 45.30638672 106.66585937 44.31638672 107.00585938 43.29638672 C107.98524728 42.27619099 108.98481386 41.27488867 110.00585938 40.29638672 C110.50085938 39.30638672 110.50085938 39.30638672 111.00585938 38.29638672 C111.66585937 38.29638672 112.32585937 38.29638672 113.00585938 38.29638672 C113.29460937 37.18263672 113.58335937 36.06888672 113.88085938 34.92138672 C115.00585938 31.29638672 115.00585938 31.29638672 117.00585938 29.29638672 C118.79213174 24.65207857 118.54623944 18.91752691 117.00585938 14.29638672 C113.37585938 13.96638672 109.74585938 13.63638672 106.00585938 13.29638672 C106.00585938 9.33638672 106.00585938 5.37638672 106.00585938 1.29638672 C115.75009852 1.27324836 125.49433116 1.25546398 135.23859215 1.24457455 C139.76291243 1.239349 144.28721395 1.23225728 148.81152344 1.22094727 C153.17516897 1.21010677 157.53879642 1.2041074 161.90245438 1.20150948 C163.56987416 1.19965733 165.23729293 1.19604073 166.90470505 1.19065666 C169.23450635 1.18343083 171.56423232 1.18239643 173.89404297 1.18286133 C174.58815781 1.17926605 175.28227264 1.17567078 175.99742126 1.17196655 C180.77775505 1.18233456 180.77775505 1.18233456 183.00585938 2.29638672 C183.00585938 5.92638672 183.00585938 9.55638672 183.00585938 13.29638672 C181.70648438 13.56451172 180.40710938 13.83263672 179.06835938 14.10888672 C174.25521544 15.17083435 169.64748734 16.65041936 165.00585938 18.29638672 C165.00585938 18.95638672 165.00585938 19.61638672 165.00585938 20.29638672 C163.73630638 20.94473326 162.46516231 21.58996487 161.19335938 22.23388672 C160.13181641 22.77335937 160.13181641 22.77335937 159.04882812 23.32373047 C157.00585938 24.29638672 157.00585938 24.29638672 154.00585938 25.29638672 C153.67585937 26.28638672 153.34585938 27.27638672 153.00585938 28.29638672 C151.51880622 29.55714918 150.02823598 30.81490519 148.49804688 32.02294922 C146.68436122 33.57075425 145.41956591 35.38788289 144.00585938 37.29638672 C143.34585938 37.29638672 142.68585938 37.29638672 142.00585938 37.29638672 C142.00585938 38.28638672 142.00585938 39.27638672 142.00585938 40.29638672 C140.38482969 42.0074736 138.71082474 43.66891978 137.00585938 45.29638672 C136.28398437 46.22451172 135.56210938 47.15263672 134.81835938 48.10888672 C134.22023437 48.83076172 133.62210938 49.55263672 133.00585938 50.29638672 C132.34585938 50.29638672 131.68585938 50.29638672 131.00585938 50.29638672 C130.63460937 51.41013672 130.63460937 51.41013672 130.25585938 52.54638672 C128.90120898 55.52661759 127.49570528 57.19557924 125.00585938 59.29638672 C124.34585938 59.29638672 123.68585938 59.29638672 123.00585938 59.29638672 C122.91820312 59.85455078 122.83054688 60.41271484 122.74023438 60.98779297 C120.59006464 67.74710316 113.90779496 73.39445114 109.00585938 78.29638672 C107.15384963 80.67407609 105.34269468 83.07581013 103.55664062 85.50341797 C103.04488281 86.09509766 102.533125 86.68677734 102.00585938 87.29638672 C101.34585938 87.29638672 100.68585938 87.29638672 100.00585938 87.29638672 C100.30120475 92.02191276 102.63216215 94.6033287 105.44335938 98.17138672 C108.39664107 102.18784982 110.43423534 106.58151463 112.00585938 111.29638672 C112.66585937 111.29638672 113.32585937 111.29638672 114.00585938 111.29638672 C114.369375 112.075625 114.369375 112.075625 114.74023438 112.87060547 C116.29555958 116.10687829 117.75367795 118.98115994 120.00585938 121.79638672 C122.14301212 124.46782765 123.4609103 127.09593586 124.92382812 130.16748047 C126.42780798 133.12657442 128.22318452 135.86595667 130.05273438 138.63232422 C131.00585938 140.29638672 131.00585938 140.29638672 131.00585938 142.29638672 C131.66585937 142.29638672 132.32585937 142.29638672 133.00585938 142.29638672 C133.66585937 144.27638672 134.32585937 146.25638672 135.00585938 148.29638672 C135.66585937 148.29638672 136.32585937 148.29638672 137.00585938 148.29638672 C138.29492188 149.97607422 138.29492188 149.97607422 139.63085938 152.17138672 C140.076875 152.89068359 140.52289063 153.60998047 140.98242188 154.35107422 C142.00585938 156.29638672 142.00585938 156.29638672 142.00585938 158.29638672 C142.66585937 158.29638672 143.32585937 158.29638672 144.00585938 158.29638672 C147.00585938 162.6810021 147.00585938 162.6810021 147.00585938 165.29638672 C147.66585937 165.29638672 148.32585937 165.29638672 149.00585938 165.29638672 C149.33585938 166.61638672 149.66585937 167.93638672 150.00585938 169.29638672 C150.66585937 169.29638672 151.32585937 169.29638672 152.00585938 169.29638672 C152.08835938 169.91513672 152.17085937 170.53388672 152.25585938 171.17138672 C152.79864237 173.44993107 152.79864237 173.44993107 154.88085938 174.35888672 C155.58210937 174.66826172 156.28335938 174.97763672 157.00585938 175.29638672 C158.94715112 176.92707179 160.00367795 178.2922535 161.19335938 180.54638672 C163.44405789 183.96123964 166.20412822 186.180025 169.36132812 188.74560547 C169.90402344 189.25736328 170.44671875 189.76912109 171.00585938 190.29638672 C171.00585938 190.95638672 171.00585938 191.61638672 171.00585938 192.29638672 C171.73933594 192.56708984 172.4728125 192.83779297 173.22851562 193.11669922 C175.89654523 194.24995511 178.0611813 195.53231232 180.44335938 197.17138672 C181.16394531 197.66380859 181.88453125 198.15623047 182.62695312 198.66357422 C184.33729658 199.83750454 186.02791186 201.04036993 187.70507812 202.26123047 C202.46727939 211.36313208 219.13136777 212.38397059 236.00585938 212.29638672 C237.77149933 212.30719157 239.53712806 212.32010192 241.30273438 212.33544922 C245.20477263 212.36098612 249.10405728 212.34409897 253.00585938 212.29638672 C253.24023437 219.92138672 253.24023437 219.92138672 251.13085938 223.29638672 C249.00585938 225.29638672 249.00585938 225.29638672 247.00585938 225.29638672 C246.67585938 226.28638672 246.34585937 227.27638672 246.00585938 228.29638672 C230.40151684 239.53729273 205.07546424 238.4155499 186.81835938 235.84814453 C181.36280791 234.79302572 176.21395453 233.21945951 171.00585938 231.29638672 C169.89726562 230.89291016 168.78867188 230.48943359 167.64648438 230.07373047 C165.39752327 229.20707281 163.19449892 228.30349849 161.00585938 227.29638672 C161.00585938 226.63638672 161.00585938 225.97638672 161.00585938 225.29638672 C157.04585938 224.30638672 157.04585938 224.30638672 153.00585938 223.29638672 C153.00585938 222.63638672 153.00585938 221.97638672 153.00585938 221.29638672 C152.32523438 221.04888672 151.64460937 220.80138672 150.94335938 220.54638672 C147.43720854 219.05440764 144.28965569 217.22803161 141.00585938 215.29638672 C141.00585938 214.63638672 141.00585938 213.97638672 141.00585938 213.29638672 C140.43351563 213.03857422 139.86117187 212.78076172 139.27148438 212.51513672 C136.79456943 211.1827273 134.87174277 209.64582554 132.75585938 207.79638672 C132.04945313 207.18794922 131.34304687 206.57951172 130.61523438 205.95263672 C129.00585938 204.29638672 129.00585938 204.29638672 129.00585938 202.29638672 C128.42835938 202.04888672 127.85085937 201.80138672 127.25585938 201.54638672 C124.67645958 200.11338683 122.94464346 198.51213995 121.00585938 196.29638672 C121.00585938 195.63638672 121.00585938 194.97638672 121.00585938 194.29638672 C120.34585938 194.29638672 119.68585938 194.29638672 119.00585938 194.29638672 C118.73773438 193.69826172 118.46960938 193.10013672 118.19335938 192.48388672 C117.13289209 190.26641542 117.13289209 190.26641542 115.44335938 188.79638672 C113.74269926 187.02178486 113.41791755 185.68632415 113.00585938 183.29638672 C112.34585938 183.29638672 111.68585938 183.29638672 111.00585938 183.29638672 C110.90273437 182.65701172 110.79960937 182.01763672 110.69335938 181.35888672 C110.46648437 180.67826172 110.23960937 179.99763672 110.00585938 179.29638672 C109.01585937 178.96638672 108.02585937 178.63638672 107.00585938 178.29638672 C105.53320312 176.35498047 105.53320312 176.35498047 103.94335938 173.73388672 C103.3375 172.74904297 102.73164063 171.76419922 102.10742188 170.74951172 C101.77516602 170.20230469 101.44291016 169.65509766 101.10058594 169.09130859 C99.46719728 166.41319231 97.80248259 163.75490214 96.13891602 161.09545898 C95.27680373 159.71694 94.41652991 158.33726906 93.55834961 156.95629883 C91.66144084 153.90887447 89.74220832 150.8967715 87.70507812 147.94091797 C86.00585938 145.29638672 86.00585938 145.29638672 86.00585938 143.29638672 C85.34585938 143.29638672 84.68585938 143.29638672 84.00585938 143.29638672 C82.15758504 139.68385052 80.45536393 136.08739862 79.00585938 132.29638672 C78.34585938 132.29638672 77.68585938 132.29638672 77.00585938 132.29638672 C75.49804687 130.17919922 75.49804687 130.17919922 73.88085938 127.42138672 C73.34203125 126.51646484 72.80320312 125.61154297 72.24804688 124.67919922 C71.00585938 122.29638672 71.00585938 122.29638672 71.00585938 120.29638672 C70.34585938 120.29638672 69.68585938 120.29638672 69.00585938 120.29638672 C68.67585938 119.30638672 68.34585938 118.31638672 68.00585938 117.29638672 C66.02585937 117.29638672 64.04585938 117.29638672 62.00585938 117.29638672 C62.00585938 117.95638672 62.00585938 118.61638672 62.00585938 119.29638672 C57.16645333 121.71608974 55.09108878 121.29638672 49.00585938 121.29638672 C49.33585937 142.74638672 49.66585937 164.19638672 50.00585938 186.29638672 C50.66585937 186.29638672 51.32585937 186.29638672 52.00585938 186.29638672 C52.43898437 186.75013672 52.87210938 187.20388672 53.31835938 187.67138672 C56.49858747 190.73382859 59.99617523 191.35441591 64.25585938 191.79638672 C65.49335937 191.96138672 66.73085937 192.12638672 68.00585938 192.29638672 C69.19568998 194.67604792 69.13935903 196.21124406 69.13085938 198.85888672 C69.13472656 200.06738281 69.13472656 200.06738281 69.13867188 201.30029297 C69.00585938 203.29638672 69.00585938 203.29638672 68.00585938 204.29638672 C65.60776788 204.39666467 63.23846439 204.43257348 60.83984375 204.42578125 C60.09027908 204.42753357 59.34071442 204.42928589 58.56843567 204.43109131 C56.07880368 204.43550992 53.58924214 204.43257181 51.09960938 204.42919922 C49.37707506 204.42987226 47.65454083 204.43084228 45.93200684 204.43209839 C42.3171295 204.43357537 38.70227682 204.43142079 35.08740234 204.42675781 C30.44319445 204.42106052 25.79904434 204.42433952 21.15483856 204.43033028 C17.59649212 204.43393587 14.03815947 204.43279731 10.47981262 204.43020248 C8.76691176 204.42953321 7.05400965 204.43036165 5.34111023 204.43268204 C2.95133116 204.43520855 0.56164697 204.43136802 -1.828125 204.42578125 C-2.54296555 204.42780548 -3.25780609 204.42982971 -3.99430847 204.43191528 C-8.87987794 204.41064941 -8.87987794 204.41064941 -9.99414062 203.29638672 C-10.06619574 201.61029706 -10.0780013 199.92138013 -10.05664062 198.23388672 C-10.04761719 197.31478516 -10.03859375 196.39568359 -10.02929688 195.44873047 C-10.01769531 194.73845703 -10.00609375 194.02818359 -9.99414062 193.29638672 C-8.81851563 192.84263672 -7.64289062 192.38888672 -6.43164062 191.92138672 C-5.70460938 191.64037109 -4.97757813 191.35935547 -4.22851562 191.06982422 C-1.99414062 190.29638672 -1.99414062 190.29638672 1.81835938 189.54638672 C5.31536467 188.56138125 5.31536467 188.56138125 6.88085938 184.98388672 C8.44126419 179.86922649 9.1320474 175.41232716 9.1530304 170.06109619 C9.1601857 168.8051062 9.167341 167.54911621 9.17471313 166.25506592 C9.17755302 164.87072779 9.1802648 163.48638939 9.18286133 162.10205078 C9.18913071 160.63810059 9.19577793 159.17415198 9.20277405 157.71020508 C9.22375863 152.91081844 9.2341705 148.11143169 9.24414062 143.31201172 C9.24819013 141.65638971 9.25230711 140.00076786 9.25649071 138.34514618 C9.27552928 130.56623462 9.28976367 122.78733247 9.29810268 115.00840211 C9.30787345 106.04321051 9.3341943 97.07826591 9.37460357 88.11316133 C9.40480427 81.17369706 9.41957525 74.23430346 9.42288369 67.29477477 C9.42522944 63.15457794 9.4341279 59.0146454 9.45934486 54.87451935 C9.48270046 50.97725307 9.48682906 47.08042371 9.47658348 43.18310547 C9.47608984 41.758141 9.48235939 40.33315446 9.49613953 38.90825653 C9.56689525 31.15397183 9.6066128 23.8765769 5.00585938 17.29638672 C1.96102152 15.26649482 0.98530957 15.02835007 -2.49414062 14.79638672 C-5.97359082 14.56442337 -6.94930277 14.32627862 -9.99414062 12.29638672 C-10.39257812 10.23779297 -10.39257812 10.23779297 -10.36914062 7.85888672 C-10.376875 7.07642578 -10.38460938 6.29396484 -10.39257812 5.48779297 C-9.33091807 -0.35133733 -5.16391646 -0.06198551 0 0 Z " fill="#FDFDFD" transform="translate(41.994140625,114.70361328125)"/>
<path d="M0 0 C1.88529922 0.00666183 1.88529922 0.00666183 3.8086853 0.01345825 C4.50148087 0.0131662 5.19427643 0.01287415 5.9080658 0.01257324 C8.20237673 0.01396872 10.49636456 0.02953984 12.7906189 0.04519653 C14.37959618 0.0489259 15.96857575 0.05177323 17.55755615 0.05377197 C21.74319794 0.0614145 25.9287013 0.08106822 30.11428833 0.10317993 C34.38398363 0.12362508 38.65370127 0.13277083 42.9234314 0.14285278 C51.30370331 0.1643136 59.68386264 0.19845692 68.0640564 0.24050903 C69.32643371 2.76526365 69.16262044 4.55251369 69.1265564 7.36550903 C69.11753296 8.27558716 69.10850952 9.18566528 69.09921265 10.12332153 C69.08761108 10.82199341 69.07600952 11.52066528 69.0640564 12.24050903 C65.63709183 14.12533954 62.63916469 15.37593694 58.8140564 16.05300903 C54.95633682 16.79089032 54.95633682 16.79089032 53.8555603 19.53982544 C52.70803723 24.90507983 52.70476318 30.16551408 52.6499939 35.63894653 C52.63234985 36.69444702 52.61470581 37.74994751 52.5965271 38.83743286 C52.5336748 42.76330604 52.48734006 46.68942966 52.4390564 50.61550903 C52.3153064 59.40175903 52.1915564 68.18800903 52.0640564 77.24050903 C77.4740564 77.24050903 102.8840564 77.24050903 129.0640564 77.24050903 C128.9609314 67.91800903 128.8578064 58.59550903 128.7515564 48.99050903 C128.71421387 44.58143188 128.71421387 44.58143188 128.67611694 40.08328247 C128.6438344 37.75546655 128.61046174 35.42766537 128.57577515 33.09988403 C128.56953125 31.88961548 128.56328735 30.67934692 128.55685425 29.43240356 C128.53691406 28.2756311 128.51697388 27.11885864 128.49642944 25.92703247 C128.48532639 24.92331604 128.47422333 23.91959961 128.46278381 22.88546753 C128.00070242 19.82025039 127.20663663 18.45385357 125.0640564 16.24050903 C122.1265811 15.11404096 122.1265811 15.11404096 118.8765564 14.49050903 C117.78987671 14.24816528 116.70319702 14.00582153 115.58358765 13.75613403 C114.75214233 13.58597778 113.92069702 13.41582153 113.0640564 13.24050903 C113.03719087 11.26141506 113.01772264 9.28221932 113.0015564 7.30300903 C112.98995483 6.2008606 112.97835327 5.09871216 112.96640015 3.96316528 C113.0640564 1.24050903 113.0640564 1.24050903 114.0640564 0.24050903 C116.29792846 0.14086983 118.53499498 0.11251109 120.77108765 0.1111145 C121.47188446 0.10936218 122.17268127 0.10760986 122.89471436 0.10580444 C125.22201988 0.10138637 127.54925003 0.10432374 129.8765564 0.10769653 C131.48698949 0.10702348 133.09742248 0.10605344 134.70785522 0.10479736 C138.08734095 0.10332045 141.46680029 0.10547473 144.84628296 0.11013794 C149.18782145 0.11583523 153.52929813 0.11255619 157.87083435 0.10656548 C161.1975654 0.10295968 164.5242817 0.10409853 167.85101318 0.10669327 C169.45227058 0.10736249 171.0535293 0.10653429 172.65478516 0.10421371 C174.8889015 0.10168688 177.1229164 0.10552819 179.35702515 0.1111145 C181.26777832 0.11230789 181.26777832 0.11230789 183.21713257 0.11352539 C186.0640564 0.24050903 186.0640564 0.24050903 187.0640564 1.24050903 C187.13632141 3.09338405 187.14786859 4.94884781 187.1265564 6.80300903 C187.11753296 7.8149231 187.10850952 8.82683716 187.09921265 9.86941528 C187.0818103 11.04310669 187.0818103 11.04310669 187.0640564 12.24050903 C182.43965215 14.31677216 177.9631913 15.94073855 173.0640564 17.24050903 C171.31045899 25.24691561 170.77617344 32.86717777 170.80526733 41.04885864 C170.8017627 42.27964645 170.79825806 43.51043427 170.79464722 44.77851868 C170.78740462 48.12163009 170.78902972 51.46449058 170.79540539 54.80758739 C170.800514 58.32800143 170.79576046 61.84840567 170.79263306 65.36882019 C170.78900697 71.27878718 170.79375619 77.18870398 170.80331421 83.09866333 C170.8141911 89.90207697 170.81067327 96.70537064 170.7996614 103.50878137 C170.7905436 109.38006543 170.78932523 115.25131366 170.79453874 121.12260252 C170.79763452 124.61605101 170.79813452 128.10944337 170.79146576 131.60288811 C170.78453936 135.50289332 170.79417797 139.40276751 170.80526733 143.30276489 C170.79919464 145.00746948 170.79919464 145.00746948 170.79299927 146.74661255 C170.83067822 153.94621938 171.0643992 161.27921432 173.0640564 168.24050903 C177.15267176 171.6476885 181.89818452 171.79517525 187.0640564 172.24050903 C188.06406643 176.90722253 187.89188784 179.27352039 187.0640564 184.24050903 C162.6440564 184.24050903 138.2240564 184.24050903 113.0640564 184.24050903 C113.0640564 180.28050903 113.0640564 176.32050903 113.0640564 172.24050903 C114.0953064 172.13738403 115.1265564 172.03425903 116.1890564 171.92800903 C120.06649515 171.24007635 122.70936465 170.2689273 126.0640564 168.24050903 C128.49296607 164.59714452 128.33611833 162.81742597 128.38290405 158.47415161 C128.39305731 157.77993701 128.40321056 157.08572241 128.41367149 156.370471 C128.44428517 154.12533266 128.46145718 151.880321 128.4781189 149.63504028 C128.49505436 148.24810697 128.5128711 146.86118413 128.53158569 145.47427368 C128.59476116 140.33397235 128.64087276 135.19347275 128.6890564 130.05300903 C128.8128064 118.56488403 128.9365564 107.07675903 129.0640564 95.24050903 C103.6540564 95.24050903 78.2440564 95.24050903 52.0640564 95.24050903 C52.2806189 111.63738403 52.2806189 111.63738403 52.5015564 128.36550903 C52.54465942 131.8087561 52.58776245 135.25200317 52.63217163 138.79959106 C52.67030203 141.5325063 52.70877179 144.26541683 52.74765015 146.99832153 C52.75579239 147.70326752 52.76393463 148.4082135 52.77232361 149.13452148 C52.79683842 151.22608646 52.82717295 153.31749707 52.85873413 155.40896606 C52.88205055 157.17435226 52.88205055 157.17435226 52.90583801 158.97540283 C53.0590848 162.13791164 53.47555103 165.13225252 54.0640564 168.24050903 C55.0334314 168.54988403 56.0028064 168.85925903 57.0015564 169.17800903 C60.0640564 170.24050903 60.0640564 170.24050903 61.0640564 171.24050903 C62.1984314 171.36425903 63.3328064 171.48800903 64.5015564 171.61550903 C65.6771814 171.82175903 66.8528064 172.02800903 68.0640564 172.24050903 C70.29957399 175.59378542 70.23689168 176.1479456 69.6890564 179.92800903 C69.57819702 180.73625122 69.46733765 181.54449341 69.3531189 182.37722778 C69.25772827 182.9921106 69.16233765 183.60699341 69.0640564 184.24050903 C59.56331315 184.26363387 50.06257952 184.28142484 40.56181431 184.29232121 C36.15068636 184.29754973 31.7395776 184.30464681 27.32846069 184.31594849 C23.07504524 184.32677847 18.82164831 184.3327861 14.56822014 184.33538628 C12.94184007 184.33724033 11.31546106 184.34086055 9.68908882 184.34623909 C7.41895447 184.35345101 5.14889755 184.35449991 2.87875366 184.35403442 C1.58413712 184.35625504 0.28952057 184.35847565 -1.04432678 184.36076355 C-3.9359436 184.24050903 -3.9359436 184.24050903 -4.9359436 183.24050903 C-5.00799872 181.55441937 -5.01980428 179.86550244 -4.9984436 178.17800903 C-4.98942017 177.25890747 -4.98039673 176.33980591 -4.97109985 175.39285278 C-4.95949829 174.68257935 -4.94789673 173.97230591 -4.9359436 173.24050903 C-1.1360214 171.79915923 2.61818854 170.37832274 6.5015564 169.17800903 C9.21066824 168.51922092 9.21066824 168.51922092 10.0640564 166.24050903 C12.50159523 150.80600898 12.26147308 135.35429406 12.07577515 119.77566528 C12.05207388 117.16356626 12.02920647 114.55145954 12.00712585 111.93934631 C11.9596019 106.5008243 11.90393777 101.06243712 11.84262085 95.62405396 C11.77216106 89.37043907 11.7123757 83.11679585 11.65876168 76.86301523 C11.60666798 70.79158386 11.54924581 64.7202187 11.48899269 58.64886284 C11.46372616 56.0881995 11.43941644 53.52752652 11.4161129 50.96684456 C11.38234529 47.38620665 11.34259462 43.80568407 11.30111694 40.22512817 C11.29221939 39.18538345 11.28332184 38.14563873 11.27415466 37.0743866 C11.18477813 30.09350465 10.72760899 23.18983427 10.0640564 16.24050903 C9.43442993 16.19442505 8.80480347 16.14834106 8.15609741 16.1008606 C3.15249231 15.71075461 -0.53534786 14.83573216 -4.9359436 12.24050903 C-4.98989838 10.61587061 -5.02871555 8.99072362 -5.0609436 7.36550903 C-5.08414673 6.46058716 -5.10734985 5.55566528 -5.1312561 4.62332153 C-4.8244917 0.88079585 -3.63857805 0.29806802 0 0 Z " fill="#FDFDFD" transform="translate(575.9359436035156,134.75949096679688)"/>
<path d="M0 0 C1.25908676 0.00222061 2.51817352 0.00444122 3.81541443 0.00672913 C4.50806396 0.0065831 5.2007135 0.00643707 5.91435242 0.00628662 C8.21400537 0.00698577 10.51357828 0.01477823 12.81321716 0.02259827 C14.40362504 0.02446244 15.99403349 0.02588635 17.58444214 0.02688599 C21.77827021 0.03071123 25.97206386 0.04054156 30.1658783 0.05158997 C34.44220006 0.06180395 38.71852736 0.06638358 42.99485779 0.07142639 C51.39135799 0.08216383 59.78783017 0.09924032 68.18431091 0.12025452 C69.36737819 2.48638908 69.31785699 3.98806188 69.30931091 6.62025452 C69.3131781 7.81134827 69.3131781 7.81134827 69.31712341 9.02650452 C69.18431091 11.12025452 69.18431091 11.12025452 68.18431091 13.12025452 C65.87360784 14.2405954 63.67773936 15.03329012 61.14524841 15.47962952 C60.08177185 15.67298889 60.08177185 15.67298889 58.99681091 15.87025452 C57.98554138 16.01720764 57.98554138 16.01720764 56.95384216 16.16712952 C54.95687742 17.01753567 54.95687742 17.01753567 54.09959412 19.40492249 C52.77755273 24.77137377 52.82537363 30.00968932 52.77024841 35.51869202 C52.75260437 36.5741925 52.73496033 37.62969299 52.71678162 38.71717834 C52.65392931 42.64305152 52.60759457 46.56917514 52.55931091 50.49525452 C52.43556091 59.28150452 52.31181091 68.06775452 52.18431091 77.12025452 C77.59431091 77.12025452 103.00431091 77.12025452 129.18431091 77.12025452 C129.03993591 67.77712952 128.89556091 58.43400452 128.74681091 48.80775452 C128.70370789 45.85926575 128.66060486 42.91077698 128.61619568 39.87294006 C128.57807896 37.54261162 128.53961036 35.21228888 128.50071716 32.88197327 C128.47600342 31.05889648 128.47600342 31.05889648 128.45079041 29.19898987 C128.43060852 28.04209656 128.41042664 26.88520325 128.38963318 25.69325256 C128.3740889 24.68731552 128.35854462 23.68137848 128.3425293 22.6449585 C128.28467121 19.99421398 128.28467121 19.99421398 127.18431091 17.12025452 C123.8968128 15.94391165 120.57164595 15.13833837 117.18821716 14.28041077 C114.18431091 13.12025452 114.18431091 13.12025452 112.75462341 11.25306702 C111.78728247 7.63547693 112.52290305 4.78806176 113.18431091 1.12025452 C115.06311246 -0.75854703 118.28272605 -0.01740125 120.78367615 -0.02500916 C121.81783157 -0.03004707 121.81783157 -0.03004707 122.87287903 -0.03518677 C125.16290566 -0.04472318 127.45285939 -0.04664122 129.74290466 -0.04771423 C131.32852204 -0.05092497 132.91413912 -0.0542889 134.49975586 -0.05780029 C137.82796414 -0.06379832 141.15614643 -0.06563951 144.48435974 -0.06504822 C148.75634462 -0.06494656 153.02816342 -0.07859922 157.30010891 -0.09582043 C160.57627127 -0.10692028 163.85239322 -0.10896805 167.12857246 -0.10843849 C168.70388931 -0.10962164 170.27920711 -0.11406205 171.85450554 -0.12177086 C174.05497353 -0.13153028 176.25507773 -0.12870899 178.45555115 -0.12266541 C179.70940109 -0.12409042 180.96325104 -0.12551544 182.25509644 -0.12698364 C185.18431091 0.12025452 185.18431091 0.12025452 187.18431091 2.12025452 C187.37962341 4.50306702 187.37962341 4.50306702 187.30931091 7.24525452 C187.29126404 8.15533264 187.27321716 9.06541077 187.25462341 10.00306702 C187.23142029 10.70173889 187.20821716 11.40041077 187.18431091 12.12025452 C183.48849573 14.25993699 180.12005635 15.4384039 175.95774841 16.22181702 C175.06233337 16.39277893 174.16691833 16.56374084 173.24436951 16.73988342 C172.56455017 16.86540588 171.88473083 16.99092834 171.18431091 17.12025452 C171.16095327 36.06993424 171.14331764 55.01961104 171.13249874 73.96930218 C171.12734188 82.76791553 171.12031078 91.56651995 171.10887146 100.36512756 C171.09890602 108.03375197 171.09245304 115.70236989 171.09022242 123.37100059 C171.08891848 127.43167505 171.08585261 131.49233097 171.07858086 135.5529995 C171.07179132 139.37537502 171.06969994 143.19772438 171.07120323 147.02010536 C171.07092823 148.42254402 171.0689405 149.82498355 171.06510544 151.22741699 C171.06012247 153.14369066 171.061924 155.05997837 171.0640564 156.97625732 C171.0631346 158.04830256 171.06221281 159.12034781 171.06126308 160.22487926 C171.17774798 162.96582543 171.5634634 165.45272989 172.18431091 168.12025452 C173.15368591 168.42962952 174.12306091 168.73900452 175.12181091 169.05775452 C178.18431091 170.12025452 178.18431091 170.12025452 179.18431091 171.12025452 C180.33931091 171.26462952 181.49431091 171.40900452 182.68431091 171.55775452 C183.83931091 171.74337952 184.99431091 171.92900452 186.18431091 172.12025452 C187.37414152 174.49991572 187.31781057 176.03511186 187.30931091 178.68275452 C187.31188904 179.48841858 187.31446716 180.29408264 187.31712341 181.12416077 C187.18431091 183.12025452 187.18431091 183.12025452 186.18431091 184.12025452 C183.95043885 184.21989372 181.71337233 184.24825246 179.47727966 184.24964905 C178.77648285 184.25140137 178.07568604 184.25315369 177.35365295 184.25495911 C175.02634743 184.25937718 172.69911728 184.25643981 170.37181091 184.25306702 C168.76137782 184.25374007 167.15094483 184.25471011 165.54051208 184.25596619 C162.16102636 184.2574431 158.78156702 184.25528882 155.40208435 184.25062561 C151.06054586 184.24492832 146.71906918 184.24820736 142.37753296 184.25419807 C139.05080191 184.25780387 135.72408561 184.25666502 132.39735413 184.25407028 C130.79609673 184.25340106 129.19483801 184.25422926 127.59358215 184.25654984 C125.35946581 184.25907667 123.12545091 184.25523536 120.89134216 184.24964905 C118.98058899 184.24845566 118.98058899 184.24845566 117.03123474 184.24723816 C114.18431091 184.12025452 114.18431091 184.12025452 113.18431091 183.12025452 C113.1122558 181.43416486 113.10045024 179.74524792 113.12181091 178.05775452 C113.13083435 177.13865295 113.13985779 176.21955139 113.14915466 175.27259827 C113.16075623 174.56232483 113.17235779 173.85205139 113.18431091 173.12025452 C114.18333435 172.7941217 115.18235779 172.46798889 116.21165466 172.13197327 C117.51525057 171.69118904 118.81862474 171.24974866 120.12181091 170.80775452 C120.78116638 170.59441467 121.44052185 170.38107483 122.11985779 170.16127014 C123.84117388 169.56984359 125.51763023 168.85161625 127.18431091 168.12025452 C128.3289693 164.68627936 128.34410498 161.97664097 128.38963318 158.35389709 C128.3996659 157.65968249 128.40969862 156.96546789 128.42003536 156.25021648 C128.45139449 154.00510675 128.47618077 151.75997935 128.50071716 149.51478577 C128.519123 148.12785774 128.53795981 146.74093537 128.55723572 145.35401917 C128.6256529 140.21366451 128.68572522 135.07320152 128.74681091 129.93275452 C128.89118591 118.44462952 129.03556091 106.95650452 129.18431091 95.12025452 C103.77431091 95.12025452 78.36431091 95.12025452 52.18431091 95.12025452 C52.28743591 105.84525452 52.39056091 116.57025452 52.49681091 127.62025452 C52.52170593 130.99308655 52.54660095 134.36591858 52.57225037 137.84095764 C52.60454895 140.52782065 52.63792389 143.21467104 52.67259216 145.90150452 C52.67550766 146.59046814 52.67842316 147.27943176 52.681427 147.98927307 C52.7023257 158.90235806 52.7023257 158.90235806 56.18431091 169.12025452 C59.10864383 170.98857833 61.41803546 171.15194598 64.87181091 171.62025452 C68.18431091 172.12025452 68.18431091 172.12025452 70.18431091 174.12025452 C70.41477966 176.24916077 70.41477966 176.24916077 70.37181091 178.68275452 C70.3653656 179.48841858 70.35892029 180.29408264 70.35227966 181.12416077 C70.18431091 183.12025452 70.18431091 183.12025452 69.18431091 184.12025452 C66.91439205 184.2146543 64.64149124 184.23767678 62.36961365 184.23377991 C61.30137863 184.23399895 61.30137863 184.23399895 60.21156311 184.23422241 C57.84697979 184.23352322 55.4824743 184.22573058 53.11790466 184.21791077 C51.48265628 184.21604661 49.84740734 184.2146227 48.2121582 184.21362305 C43.89996306 184.20979769 39.58780139 184.19996727 35.27561951 184.18891907 C30.87865146 184.17870532 26.48167802 184.17412551 22.08470154 184.16908264 C13.4512226 184.15834501 4.81777092 184.14126839 -3.81568909 184.12025452 C-3.81568909 180.49025452 -3.81568909 176.86025452 -3.81568909 173.12025452 C-2.59881409 172.66650452 -1.38193909 172.21275452 -0.12818909 171.74525452 C0.60142029 171.46294983 1.33102966 171.18064514 2.08274841 170.88978577 C4.18431091 170.12025452 4.18431091 170.12025452 6.99681091 169.43275452 C9.84584051 167.72333676 10.4939089 165.74819605 11.56848717 162.68407249 C12.8356556 157.40855456 12.58952314 152.01957342 12.55662537 146.62342834 C12.55905705 145.27076946 12.56278001 143.91811237 12.56768799 142.56546021 C12.5770465 138.91272499 12.56771579 135.26026009 12.55435586 131.60754609 C12.54299335 127.77687713 12.54715239 123.94622054 12.54910278 120.11553955 C12.54998393 113.68746044 12.53894041 107.25948716 12.52049255 100.83143616 C12.49930064 93.40480644 12.49582186 85.97833137 12.50205451 78.55167753 C12.50775178 71.39584746 12.50209998 64.24007172 12.49088097 57.0842495 C12.48624254 54.04329611 12.48535781 51.00237602 12.48746681 47.96142006 C12.48935252 44.38183076 12.48122422 40.80239856 12.46540642 37.22284508 C12.45915225 35.2856228 12.46266702 33.34837669 12.46647644 31.41114807 C12.45939163 30.25468277 12.45230682 29.09821747 12.44500732 27.90670776 C12.44295445 26.90404782 12.44090158 25.90138788 12.43878651 24.86834431 C12.16552723 21.91740895 11.52011844 19.76012302 10.18431091 17.12025452 C8.19031019 16.19753413 8.19031019 16.19753413 5.87181091 15.99525452 C-1.45158358 14.63688296 -1.45158358 14.63688296 -3.81568909 12.12025452 C-4.28794226 8.41445611 -4.23861869 4.82995133 -3.81568909 1.12025452 C-2.81568909 0.12025452 -2.81568909 0.12025452 0 0 Z " fill="#FDFDFD" transform="translate(1675.815689086914,134.87974548339844)"/>
<path d="M0 0 C0.79341797 -0.00386719 1.58683594 -0.00773438 2.40429688 -0.01171875 C8.31086933 -0.00163067 8.31086933 -0.00163067 9.4375 1.125 C11.58192605 1.32033386 13.72706005 1.50980736 15.87451172 1.66845703 C32.02321339 2.90931095 44.70346663 7.64325846 58.4375 16.125 C59.36304688 16.67027344 60.28859375 17.21554688 61.2421875 17.77734375 C63.34687497 19.0693672 64.73846294 20.35516973 66.4375 22.125 C67.613125 23.0221875 67.613125 23.0221875 68.8125 23.9375 C71.8388539 26.45946158 74.05257747 28.99053039 76.4375 32.125 C76.4375 32.785 76.4375 33.445 76.4375 34.125 C77.0975 34.125 77.7575 34.125 78.4375 34.125 C79.4275 36.6 79.4275 36.6 80.4375 39.125 C81.0975 39.125 81.7575 39.125 82.4375 39.125 C82.829375 39.95 83.22125 40.775 83.625 41.625 C84.9842577 44.24977349 86.35624215 46.51076874 88 48.9375 C90.29538024 52.53473768 91.21982175 55.73703679 91.9765625 59.90625 C92.43431343 62.10966128 93.10144833 64.0390097 93.9375 66.125 C97.58523853 75.52279036 97.83956707 84.73770216 97.8125 94.6875 C97.81228851 95.40087524 97.81207703 96.11425049 97.81185913 96.84924316 C97.78044172 107.44301635 97.19945787 117.11353558 93.4375 127.125 C93.05207031 128.18847656 92.66664063 129.25195312 92.26953125 130.34765625 C89.57417462 137.2474203 86.11536628 143.70453241 82.4375 150.125 C81.7775 150.125 81.1175 150.125 80.4375 150.125 C80.19 150.846875 79.9425 151.56875 79.6875 152.3125 C75.20038021 162.40851954 62.16948992 172.25900504 52.4375 177.125 C51.4475 177.125 50.4575 177.125 49.4375 177.125 C49.4375 177.785 49.4375 178.445 49.4375 179.125 C42.47637642 182.21098033 35.90929938 184.65513783 28.4375 186.125 C28.1075 186.455 27.7775 186.785 27.4375 187.125 C19.39036691 189.63834477 10.98676869 189.43254637 2.65112305 189.38574219 C0.37586931 189.3750041 -1.89859801 189.38569798 -4.17382812 189.3984375 C-11.54663729 189.40523852 -18.42057529 189.16010555 -25.5625 187.125 C-26.7175 186.815625 -27.8725 186.50625 -29.0625 186.1875 C-35.7305747 184.16326304 -42.19682307 181.96923863 -48.5625 179.125 C-48.5625 178.465 -48.5625 177.805 -48.5625 177.125 C-49.43777344 177.03734375 -50.31304687 176.9496875 -51.21484375 176.859375 C-58.64282662 175.22989918 -65.65284555 168.85293019 -70.5625 163.125 C-70.8925 162.135 -71.2225 161.145 -71.5625 160.125 C-72.2225 160.125 -72.8825 160.125 -73.5625 160.125 C-79.09354925 154.18923983 -79.09354925 154.18923983 -79.5625 150.125 C-80.2225 150.125 -80.8825 150.125 -81.5625 150.125 C-83.0231285 147.47761084 -83.5625 146.23051666 -83.5625 143.125 C-84.2225 143.125 -84.8825 143.125 -85.5625 143.125 C-86.606977 141.14049369 -87.5946156 139.14726059 -88.5625 137.125 C-88.87574219 136.50238281 -89.18898437 135.87976563 -89.51171875 135.23828125 C-97.765906 117.06601921 -99.04175029 94.47690846 -95.5625 75.125 C-95.34400391 73.89716797 -95.34400391 73.89716797 -95.12109375 72.64453125 C-94.676086 70.44354699 -94.14631361 68.29345057 -93.5625 66.125 C-93.26214844 65.00351563 -92.96179688 63.88203125 -92.65234375 62.7265625 C-90.66684781 55.7660026 -90.66684781 55.7660026 -89.5625 53.125 C-88.0775 52.63 -88.0775 52.63 -86.5625 52.125 C-86.47097656 51.25488281 -86.37945312 50.38476562 -86.28515625 49.48828125 C-84.34369311 40.45260685 -76.24350265 31.3355095 -69.5625 25.125 C-68.9025 25.125 -68.2425 25.125 -67.5625 25.125 C-67.5625 24.465 -67.5625 23.805 -67.5625 23.125 C-66.964375 22.856875 -66.36625 22.58875 -65.75 22.3125 C-63.57845122 21.27786688 -63.57845122 21.27786688 -62.28515625 19.7890625 C-49.49457062 7.4335308 -30.15556982 2.45239745 -13.03125 1.37109375 C-8.60661825 0.93003078 -4.63544071 -0.0227042 0 0 Z M-13.5625 20.125 C-13.5625 20.785 -13.5625 21.445 -13.5625 22.125 C-14.119375 22.21136719 -14.67625 22.29773438 -15.25 22.38671875 C-21.3178793 23.50394653 -25.57035837 25.56478898 -30.5625 29.125 C-31.65498047 29.84236328 -31.65498047 29.84236328 -32.76953125 30.57421875 C-37.15923566 33.5876915 -39.51775826 35.64010587 -40.5625 41.125 C-41.2225 41.125 -41.8825 41.125 -42.5625 41.125 C-48.62605522 52.58114325 -51.96029832 62.73692228 -53.16796875 75.59765625 C-53.5625 79.125 -53.5625 79.125 -54.5625 81.125 C-54.65904864 82.91461105 -54.69325451 84.70778765 -54.6953125 86.5 C-54.69660156 87.56734375 -54.69789063 88.6346875 -54.69921875 89.734375 C-54.69535156 90.85328125 -54.69148438 91.9721875 -54.6875 93.125 C-54.69136719 94.24390625 -54.69523437 95.3628125 -54.69921875 96.515625 C-54.69792969 97.58296875 -54.69664062 98.6503125 -54.6953125 99.75 C-54.69418457 100.73226562 -54.69305664 101.71453125 -54.69189453 102.7265625 C-54.72145235 105.13907894 -54.72145235 105.13907894 -53.5625 107.125 C-53.29117054 109.35167114 -53.04562379 111.58150531 -52.8125 113.8125 C-51.33803475 125.83674226 -47.48705507 136.4363602 -41.015625 146.734375 C-39.5625 149.125 -39.5625 149.125 -38.5625 152.125 C-33.5432734 157.53737751 -27.1868071 161.91285819 -20.5625 165.125 C-19.5725 165.125 -18.5825 165.125 -17.5625 165.125 C-17.5625 165.785 -17.5625 166.445 -17.5625 167.125 C-4.25687896 169.49420438 7.10443654 169.30500454 20.4375 167.125 C20.4375 166.465 20.4375 165.805 20.4375 165.125 C21.14777344 165.03734375 21.85804688 164.9496875 22.58984375 164.859375 C26.03437656 163.97107298 28.14574978 162.48690698 31 160.375 C32.39412109 159.36179687 32.39412109 159.36179687 33.81640625 158.328125 C36.43438471 156.12761852 38.3733186 153.83910105 40.4375 151.125 C40.97375 150.691875 41.51 150.25875 42.0625 149.8125 C44.36342364 146.98863917 44.68622115 143.65023151 45.4375 140.125 C46.0975 140.125 46.7575 140.125 47.4375 140.125 C50.81118353 132.72462856 52.53410718 125.59353151 53.6875 117.5625 C53.85443359 116.41136719 54.02136719 115.26023437 54.19335938 114.07421875 C56.10113157 100.18252241 55.69734212 87.54687465 53.6875 73.6875 C53.53087891 72.59695312 53.37425781 71.50640625 53.21289062 70.3828125 C52.11702228 63.52208885 50.32010603 57.44816433 47.4375 51.125 C46.7775 51.125 46.1175 51.125 45.4375 51.125 C45.2209375 49.701875 45.2209375 49.701875 45 48.25 C44.60814601 45.2315506 44.60814601 45.2315506 43.4375 43.125 C42.7775 43.125 42.1175 43.125 41.4375 43.125 C40.4475 40.65 40.4475 40.65 39.4375 38.125 C38.7775 38.125 38.1175 38.125 37.4375 38.125 C36.9425 36.145 36.9425 36.145 36.4375 34.125 C35.4784375 33.9703125 35.4784375 33.9703125 34.5 33.8125 C33.819375 33.585625 33.13875 33.35875 32.4375 33.125 C31.9425 31.64 31.9425 31.64 31.4375 30.125 C28.88606232 26.6667796 25.32725349 25.79851387 21.375 24.4375 C20.73755859 24.21255859 20.10011719 23.98761719 19.44335938 23.75585938 C16.02033594 22.52867934 16.02033594 22.52867934 12.4375 22.125 C12.4375 21.465 12.4375 20.805 12.4375 20.125 C3.8575 20.125 -4.7225 20.125 -13.5625 20.125 Z " fill="#FDFDFD" transform="translate(311.5625,131.875)"/>
<path d="M0 0 C1.27423828 -0.00193359 1.27423828 -0.00193359 2.57421875 -0.00390625 C3.46753906 -0.00003906 4.36085938 0.00382813 5.28125 0.0078125 C6.17457031 0.00394531 7.06789063 0.00007812 7.98828125 -0.00390625 C8.83777344 -0.00261719 9.68726563 -0.00132812 10.5625 0 C11.34689453 0.00112793 12.13128906 0.00225586 12.93945312 0.00341797 C14.78125 0.1328125 14.78125 0.1328125 15.78125 1.1328125 C17.68888835 1.32824984 19.59730993 1.51789174 21.50830078 1.67724609 C32.79453578 2.64476899 49.37433889 4.72590139 57.78125 13.1328125 C57.96645467 16.05298086 58.08985779 18.95133995 58.16796875 21.875 C58.19349319 22.75431183 58.21901764 23.63362366 58.24531555 24.5395813 C58.29742357 26.40408325 58.34683827 28.26866208 58.39379883 30.13330078 C58.4682606 32.98904331 58.55893019 35.84397667 58.65039062 38.69921875 C58.69891541 40.50778598 58.74647329 42.31637946 58.79296875 44.125 C58.82202805 44.98133026 58.85108734 45.83766052 58.88102722 46.71994019 C59.01000823 52.78967516 59.01000823 52.78967516 56.78125 56.1328125 C54.46875 56.4609375 54.46875 56.4609375 51.78125 56.3828125 C50.4509375 56.35960937 50.4509375 56.35960937 49.09375 56.3359375 C46.78125 56.1328125 46.78125 56.1328125 44.78125 55.1328125 C44.3671875 53.06640625 44.3671875 53.06640625 44.15625 50.5703125 C44.08148437 49.74402344 44.00671875 48.91773438 43.9296875 48.06640625 C43.88070313 47.42832031 43.83171875 46.79023438 43.78125 46.1328125 C43.12125 46.1328125 42.46125 46.1328125 41.78125 46.1328125 C41.348125 44.8953125 40.915 43.6578125 40.46875 42.3828125 C39.28484531 39.19190748 37.92977213 36.79288752 35.78125 34.1328125 C35.78125 33.4728125 35.78125 32.8128125 35.78125 32.1328125 C35.20375 31.8646875 34.62625 31.5965625 34.03125 31.3203125 C31.78125 30.1328125 31.78125 30.1328125 30.02734375 28.72265625 C27.34409709 26.82338427 24.64649317 25.71998579 21.59375 24.5078125 C15.87380533 22.22536783 15.87380533 22.22536783 14.78125 21.1328125 C2.77829609 19.54605776 -7.28934828 20.3200703 -17.50390625 26.89453125 C-21.25184355 29.98455725 -24.58597116 33.49141073 -26.21875 38.1328125 C-26.43639232 40.84627517 -26.54352502 43.42248833 -26.53125 46.1328125 C-26.54736328 46.844375 -26.56347656 47.5559375 -26.58007812 48.2890625 C-26.58410228 52.60295293 -26.12924332 54.93818131 -23.21875 58.1328125 C-23.21875 58.7928125 -23.21875 59.4528125 -23.21875 60.1328125 C-21.89875 60.7928125 -20.57875 61.4528125 -19.21875 62.1328125 C-19.21875 62.7928125 -19.21875 63.4528125 -19.21875 64.1328125 C-17.7646875 64.5040625 -17.7646875 64.5040625 -16.28125 64.8828125 C-13.3628273 65.70745699 -10.71168132 66.78039345 -7.96875 68.0703125 C-2.88820071 70.41315647 2.36228263 71.79579625 7.78125 73.1328125 C7.78125 73.7928125 7.78125 74.4528125 7.78125 75.1328125 C8.49410156 75.17019531 9.20695312 75.20757812 9.94140625 75.24609375 C15.89575374 75.65480401 20.31961953 76.60427987 25.78125 79.1328125 C28.75912409 79.9192398 31.75747289 80.54999832 34.78125 81.1328125 C34.78125 81.7928125 34.78125 82.4528125 34.78125 83.1328125 C35.668125 83.2359375 36.555 83.3390625 37.46875 83.4453125 C40.88810807 84.15499059 42.89068744 85.23112661 45.78125 87.1328125 C47.10733822 87.81377672 48.43811601 88.48611836 49.78125 89.1328125 C49.78125 89.7928125 49.78125 90.4528125 49.78125 91.1328125 C50.3690625 91.40480469 50.956875 91.67679687 51.5625 91.95703125 C60.08639599 96.47409585 64.88307878 103.47891914 67.96875 112.3984375 C68.93888309 115.66330847 69.41399115 118.75403108 69.78125 122.1328125 C70.11125 122.4628125 70.44125 122.7928125 70.78125 123.1328125 C70.88034302 125.46441305 70.91095504 127.79911192 70.90625 130.1328125 C70.90882813 131.4115625 70.91140625 132.6903125 70.9140625 134.0078125 C70.78125 137.1328125 70.78125 137.1328125 69.78125 138.1328125 C69.21850235 140.81825596 68.70063977 143.49534637 68.21875 146.1953125 C68.08017578 146.95392578 67.94160156 147.71253906 67.79882812 148.49414062 C67.45613173 150.37306225 67.1182427 152.25285951 66.78125 154.1328125 C66.12125 154.1328125 65.46125 154.1328125 64.78125 154.1328125 C64.67425781 154.69742188 64.56726562 155.26203125 64.45703125 155.84375 C63.6700127 158.50960473 62.49942954 160.44047992 60.96875 162.7578125 C60.46730469 163.53382813 59.96585938 164.30984375 59.44921875 165.109375 C57.676489 167.25989961 56.27646847 167.99154833 53.78125 169.1328125 C52.51320434 171.1664073 52.51320434 171.1664073 51.78125 173.1328125 C51.12125 173.1328125 50.46125 173.1328125 49.78125 173.1328125 C49.45125 174.1228125 49.12125 175.1128125 48.78125 176.1328125 C42.9201521 180.08828103 36.43864204 182.83716007 29.78125 185.1328125 C28.976875 185.4834375 28.1725 185.8340625 27.34375 186.1953125 C18.68688506 189.36245821 10.16084729 189.47484419 1.0703125 189.44848633 C-1.21402437 189.44531905 -3.49707173 189.46887534 -5.78125 189.49414062 C-13.46909783 189.52731065 -20.0301728 189.04868728 -27.21875 186.1328125 C-29.72650625 185.46754596 -32.2362271 184.96420067 -34.78125 184.4453125 C-35.99941406 184.19394531 -37.21757813 183.94257813 -38.47265625 183.68359375 C-39.37886719 183.50183594 -40.28507812 183.32007813 -41.21875 183.1328125 C-41.21875 182.4728125 -41.21875 181.8128125 -41.21875 181.1328125 C-43.136875 180.7925 -43.136875 180.7925 -45.09375 180.4453125 C-50.54611986 179.1837499 -55.7689114 177.63642105 -60.21875 174.1328125 C-61.75140236 171.16545925 -61.99200598 168.43266158 -62.21875 165.1328125 C-62.39148437 163.91207031 -62.56421875 162.69132813 -62.7421875 161.43359375 C-63.59227126 153.8541373 -63.32305839 146.18653836 -63.28125 138.5703125 C-63.27622543 136.97330869 -63.27166421 135.37630336 -63.26757812 133.77929688 C-63.25664728 129.89709717 -63.23943533 126.01497199 -63.21875 122.1328125 C-58.97044592 120.95376775 -54.2840338 120.1001706 -50.21875 122.1328125 C-47.85972612 127.92314385 -46.79218645 133.93969888 -46.21875 140.1328125 C-45.55875 140.1328125 -44.89875 140.1328125 -44.21875 140.1328125 C-42.96210022 143.03881511 -42.21875 144.92885834 -42.21875 148.1328125 C-41.22875 148.4628125 -40.23875 148.7928125 -39.21875 149.1328125 C-39.21875 150.1228125 -39.21875 151.1128125 -39.21875 152.1328125 C-38.62191406 152.40609375 -38.02507812 152.679375 -37.41015625 152.9609375 C-35.29176786 154.09376552 -33.88580244 155.23730481 -32.15625 156.8828125 C-22.45675163 165.4091534 -13.32672036 167.31245169 -0.84375 167.3203125 C0.17203125 167.33255859 1.1878125 167.34480469 2.234375 167.35742188 C12.24963899 167.37693213 20.27499039 165.53893301 27.59375 158.3828125 C28.315625 157.6403125 29.0375 156.8978125 29.78125 156.1328125 C30.44125 156.1328125 31.10125 156.1328125 31.78125 156.1328125 C32.2453125 154.43125 32.2453125 154.43125 32.71875 152.6953125 C33.78125 149.1328125 33.78125 149.1328125 34.78125 148.1328125 C34.93414263 145.88646696 35.00322467 143.63418076 35.03125 141.3828125 C35.05703125 140.15046875 35.0828125 138.918125 35.109375 137.6484375 C34.761599 133.92226611 33.85942048 132.17350404 31.78125 129.1328125 C31.78125 128.4728125 31.78125 127.8128125 31.78125 127.1328125 C30.93626953 126.71322266 30.93626953 126.71322266 30.07421875 126.28515625 C28.5496586 125.51898037 27.03129303 124.74034797 25.51953125 123.94921875 C16.58419094 119.33046796 7.48123262 116.68925652 -2.21875 114.1328125 C-2.21875 113.4728125 -2.21875 112.8128125 -2.21875 112.1328125 C-2.95480469 112.09542969 -3.69085937 112.05804688 -4.44921875 112.01953125 C-5.42503906 111.95378906 -6.40085937 111.88804687 -7.40625 111.8203125 C-8.36917969 111.76230469 -9.33210938 111.70429688 -10.32421875 111.64453125 C-13.57389064 111.07002785 -15.43549274 109.86423226 -18.21875 108.1328125 C-20.2040642 107.52049413 -22.20617999 106.96103356 -24.21875 106.4453125 C-35.99121952 102.96162254 -49.55268798 94.90999988 -56.21875 84.1328125 C-57.82351943 80.54365075 -59.04572642 76.88247762 -60.21875 73.1328125 C-60.52039062 72.23046875 -60.82203125 71.328125 -61.1328125 70.3984375 C-65.21929861 57.18419271 -63.48807333 43.36931906 -57.15429688 31.06494141 C-56.20723855 29.40257844 -55.21716958 27.7648445 -54.21875 26.1328125 C-53.55875 26.1328125 -52.89875 26.1328125 -52.21875 26.1328125 C-52.115625 25.4934375 -52.0125 24.8540625 -51.90625 24.1953125 C-51.679375 23.5146875 -51.4525 22.8340625 -51.21875 22.1328125 C-50.22875 21.8028125 -49.23875 21.4728125 -48.21875 21.1328125 C-47.51216578 19.82019643 -46.84819309 18.48411691 -46.21875 17.1328125 C-35.70600564 6.38114213 -21.9913398 2.37150264 -7.40625 1.37890625 C-4.53355298 1.05572784 -3.16371211 0.0045493 0 0 Z " fill="#FDFDFD" transform="translate(1590.21875,131.8671875)"/>
<path d="M0 0 C1.33708008 -0.00193359 1.33708008 -0.00193359 2.70117188 -0.00390625 C3.63380859 -0.00003906 4.56644531 0.00382813 5.52734375 0.0078125 C6.46384766 0.00394531 7.40035156 0.00007812 8.36523438 -0.00390625 C9.70038086 -0.00197266 9.70038086 -0.00197266 11.0625 0 C11.88242432 0.00112793 12.70234863 0.00225586 13.54711914 0.00341797 C15.46484375 0.1328125 15.46484375 0.1328125 16.46484375 1.1328125 C18.25381624 1.32828218 20.04362725 1.51793595 21.83618164 1.67724609 C31.33835469 2.54398098 39.57586597 4.66005774 48.46484375 8.1328125 C49.78935547 8.59494141 49.78935547 8.59494141 51.140625 9.06640625 C53.33984375 9.9453125 53.33984375 9.9453125 56.46484375 12.1328125 C57.44650793 17.36137778 57.59294184 22.45154773 57.59765625 27.7734375 C57.59861298 28.46290466 57.5995697 29.15237183 57.60055542 29.86273193 C57.60122992 31.30464775 57.59942716 32.74656674 57.59521484 34.18847656 C57.58982287 36.39134495 57.5952015 38.59401255 57.6015625 40.796875 C57.60090223 42.20572961 57.59962213 43.6145841 57.59765625 45.0234375 C57.59652832 46.29219727 57.59540039 47.56095703 57.59423828 48.86816406 C57.48963834 51.50724041 57.25467386 53.63390613 56.46484375 56.1328125 C55.02949534 56.3554871 53.5913885 56.56043156 52.15234375 56.7578125 C51.35183594 56.87382812 50.55132813 56.98984375 49.7265625 57.109375 C47.46484375 57.1328125 47.46484375 57.1328125 44.46484375 55.1328125 C43.18359375 52.3046875 43.18359375 52.3046875 41.96484375 48.8828125 C40.71876235 45.41615013 39.46345774 42.13005355 37.80859375 38.8359375 C36.46484375 36.1328125 36.46484375 36.1328125 36.46484375 34.1328125 C34.97984375 33.6378125 34.97984375 33.6378125 33.46484375 33.1328125 C31.27734375 31.1953125 31.27734375 31.1953125 29.46484375 29.1328125 C29.46484375 28.4728125 29.46484375 27.8128125 29.46484375 27.1328125 C28.39169922 26.94912109 28.39169922 26.94912109 27.296875 26.76171875 C24.41371662 26.12145875 21.87891902 25.19729694 19.15234375 24.0703125 C18.26933594 23.70808594 17.38632812 23.34585938 16.4765625 22.97265625 C15.81269531 22.69550781 15.14882813 22.41835937 14.46484375 22.1328125 C14.46484375 21.4728125 14.46484375 20.8128125 14.46484375 20.1328125 C1.16238174 19.85861345 -9.98845461 20.19467255 -20.53515625 29.1328125 C-21.89621876 31.11404611 -23.23606801 33.11040119 -24.53515625 35.1328125 C-25.19515625 35.1328125 -25.85515625 35.1328125 -26.53515625 35.1328125 C-27.60825051 45.67245302 -27.60825051 45.67245302 -26.53515625 56.1328125 C-25.87515625 56.1328125 -25.21515625 56.1328125 -24.53515625 56.1328125 C-24.14650391 57.04546875 -24.14650391 57.04546875 -23.75 57.9765625 C-19.98146314 64.66541248 -10.35216684 66.88971526 -3.53515625 69.1328125 C-3.53515625 69.7928125 -3.53515625 70.4528125 -3.53515625 71.1328125 C-2.81070313 71.25398438 -2.08625 71.37515625 -1.33984375 71.5 C-0.37304688 71.66757813 0.59375 71.83515625 1.58984375 72.0078125 C2.54117188 72.17023438 3.4925 72.33265625 4.47265625 72.5 C7.58316029 73.15783506 10.46100815 74.09389192 13.46484375 75.1328125 C15.36686604 75.71774404 17.26895317 76.30248177 19.17260742 76.88208008 C31.18972428 80.56407297 42.19512715 84.69612117 52.46484375 92.1328125 C52.46484375 92.7928125 52.46484375 93.4528125 52.46484375 94.1328125 C53.02171875 94.3390625 53.57859375 94.5453125 54.15234375 94.7578125 C57.43496746 96.70964282 59.17157621 99.07512244 61.46484375 102.1328125 C61.46484375 102.7928125 61.46484375 103.4528125 61.46484375 104.1328125 C62.12484375 104.1328125 62.78484375 104.1328125 63.46484375 104.1328125 C64.2027936 105.84351442 64.93946033 107.55478739 65.66796875 109.26953125 C66.29290098 110.73076985 66.93766614 112.18352892 67.58984375 113.6328125 C71.91403612 125.98764784 70.55265024 142.53384456 65.33984375 154.3828125 C64.72914885 155.63986331 64.10980095 156.89299186 63.46484375 158.1328125 C62.80484375 158.1328125 62.14484375 158.1328125 61.46484375 158.1328125 C61.36171875 158.7309375 61.25859375 159.3290625 61.15234375 159.9453125 C60.35990054 162.46672272 59.34540867 163.32747018 57.46484375 165.1328125 C57.13484375 165.7928125 56.80484375 166.4528125 56.46484375 167.1328125 C55.38215404 169.29819192 54.31312267 170.58025821 52.46484375 172.1328125 C51.47484375 172.4628125 50.48484375 172.7928125 49.46484375 173.1328125 C48.80484375 173.8134375 48.14484375 174.4940625 47.46484375 175.1953125 C45.46484375 177.1328125 45.46484375 177.1328125 42.46484375 177.1328125 C42.46484375 177.7928125 42.46484375 178.4528125 42.46484375 179.1328125 C28.59753364 188.29047012 13.50697581 189.60126269 -2.66015625 189.5703125 C-3.73716797 189.57050888 -3.73716797 189.57050888 -4.8359375 189.57070923 C-17.31882608 189.52988168 -27.72404321 187.34372286 -39.3671875 182.9296875 C-43.05900862 181.57269379 -46.79633076 180.3531236 -50.53515625 179.1328125 C-50.53515625 178.4728125 -50.53515625 177.8128125 -50.53515625 177.1328125 C-51.42203125 177.0503125 -52.30890625 176.9678125 -53.22265625 176.8828125 C-57.12539752 175.99917297 -58.7451773 174.98818839 -61.53515625 172.1328125 C-62.23999023 168.875 -62.23999023 168.875 -62.34375 165.0078125 C-62.38005775 163.95980469 -62.38005775 163.95980469 -62.417099 162.890625 C-62.48539939 160.63760143 -62.51465391 158.38674673 -62.53515625 156.1328125 C-62.54589172 155.39063477 -62.5566272 154.64845703 -62.56768799 153.88378906 C-62.63898289 148.63282642 -62.62763408 143.38402311 -62.59765625 138.1328125 C-62.59262115 136.5677098 -62.58806187 135.00260549 -62.58398438 133.4375 C-62.57316099 129.66922984 -62.55601241 125.90103993 -62.53515625 122.1328125 C-60.93400049 121.8834768 -59.32895466 121.65902602 -57.72265625 121.4453125 C-56.82933594 121.31769531 -55.93601562 121.19007813 -55.015625 121.05859375 C-52.53515625 121.1328125 -52.53515625 121.1328125 -50.8046875 122.38671875 C-48.67020702 125.32245037 -47.68259263 128.72580909 -46.53515625 132.1328125 C-46.25285156 132.93074219 -45.97054688 133.72867188 -45.6796875 134.55078125 C-43.53515625 140.72260123 -43.53515625 140.72260123 -43.53515625 144.1328125 C-42.87515625 144.1328125 -42.21515625 144.1328125 -41.53515625 144.1328125 C-39.4934614 147.03830132 -38.53515625 148.53423296 -38.53515625 152.1328125 C-37.21515625 152.7928125 -35.89515625 153.4528125 -34.53515625 154.1328125 C-34.53515625 154.7928125 -34.53515625 155.4528125 -34.53515625 156.1328125 C-33.21515625 156.7928125 -31.89515625 157.4528125 -30.53515625 158.1328125 C-30.53515625 158.7928125 -30.53515625 159.4528125 -30.53515625 160.1328125 C-29.87515625 160.2153125 -29.21515625 160.2978125 -28.53515625 160.3828125 C-24.54476462 161.38041041 -21.14965982 163.20447933 -17.53515625 165.1328125 C-17.53515625 165.7928125 -17.53515625 166.4528125 -17.53515625 167.1328125 C-13.05611526 167.2206545 -8.57729901 167.27348697 -4.09765625 167.3203125 C-2.83759766 167.34544922 -1.57753906 167.37058594 -0.27929688 167.39648438 C8.36399351 167.46418639 16.43709714 167.11628345 23.40234375 161.4453125 C26.46484375 159.1328125 26.46484375 159.1328125 28.46484375 159.1328125 C29.45484375 156.1628125 29.45484375 156.1628125 30.46484375 153.1328125 C31.12484375 153.1328125 31.78484375 153.1328125 32.46484375 153.1328125 C32.46484375 145.5428125 32.46484375 137.9528125 32.46484375 130.1328125 C31.80484375 130.1328125 31.14484375 130.1328125 30.46484375 130.1328125 C29.94921875 129.4109375 29.43359375 128.6890625 28.90234375 127.9453125 C21.28456448 119.15556719 8.22269431 116.9680591 -2.53515625 114.1328125 C-2.53515625 113.4728125 -2.53515625 112.8128125 -2.53515625 112.1328125 C-3.12941406 112.10703125 -3.72367187 112.08125 -4.3359375 112.0546875 C-10.38619083 111.64067328 -15.45744441 110.30356705 -21.08984375 108.0703125 C-23.23243193 107.24887294 -25.29925105 106.63199134 -27.53515625 106.1328125 C-27.53515625 105.4728125 -27.53515625 104.8128125 -27.53515625 104.1328125 C-28.42203125 104.0296875 -29.30890625 103.9265625 -30.22265625 103.8203125 C-39.62556467 101.86876547 -48.29704577 93.10163168 -54.34765625 86.0078125 C-55.53515625 84.1328125 -55.53515625 84.1328125 -55.53515625 81.1328125 C-56.19515625 81.1328125 -56.85515625 81.1328125 -57.53515625 81.1328125 C-58.19004998 79.76210469 -58.83360588 78.38597806 -59.47265625 77.0078125 C-60.01212891 75.85925781 -60.01212891 75.85925781 -60.5625 74.6875 C-62.79232493 68.83085138 -62.71782461 62.87497655 -62.72265625 56.6953125 C-62.73490234 55.87482422 -62.74714844 55.05433594 -62.75976562 54.20898438 C-62.77185269 49.16061941 -62.18442317 44.96110117 -60.53515625 40.1328125 C-60.28894531 39.39933594 -60.04273438 38.66585937 -59.7890625 37.91015625 C-57.27838061 31.22918918 -54.86127036 26.07848989 -49.53515625 21.1328125 C-48.26671875 19.8025 -48.26671875 19.8025 -46.97265625 18.4453125 C-44.80265309 16.38659155 -43.14582592 15.43814734 -40.53515625 14.1328125 C-40.20515625 13.1428125 -39.87515625 12.1528125 -39.53515625 11.1328125 C-37.88515625 10.8028125 -36.23515625 10.4728125 -34.53515625 10.1328125 C-34.53515625 9.4728125 -34.53515625 8.8128125 -34.53515625 8.1328125 C-26.10620453 4.40872253 -18.65886588 2.42979598 -9.5546875 1.4921875 C-6.07890307 1.0785107 -3.57017951 0.00490457 0 0 Z " fill="#FDFDFD" transform="translate(491.53515625,131.8671875)"/>
<path d="M0 0 C3.74279765 3.20811227 3.61390002 7.36680021 4 12 C4.66 12 5.32 12 6 12 C12 26.73786408 12 26.73786408 12 32 C12.66 32 13.32 32 14 32 C14.39832031 33.09699219 14.79664063 34.19398438 15.20703125 35.32421875 C15.74192112 36.77874382 16.27709225 38.23316548 16.8125 39.6875 C17.07353516 40.40873047 17.33457031 41.12996094 17.60351562 41.87304688 C19.08368298 45.87498084 20.77423425 49.346841 23 53 C23.78563428 54.99955749 24.51432214 57.02233262 25.1875 59.0625 C25.70376953 60.59583984 25.70376953 60.59583984 26.23046875 62.16015625 C27 65 27 65 27 69 C27.66 69 28.32 69 29 69 C33.86039959 80.52663934 33.86039959 80.52663934 35.5 85 C37.90923925 91.55696364 40.66348123 97.99283276 43.5 104.375 C45.44644173 109.07890084 47.07445619 113.87837488 48.71875 118.6953125 C49.86618595 121.94344559 49.86618595 121.94344559 51.5 124.4609375 C53.72480538 128.22688411 54.83026931 132.31797422 56.10546875 136.47265625 C57.33739805 140.35676455 58.82188978 143.57028913 61 147 C62.23072099 149.34589394 63.43959938 151.6942102 64.625 154.0625 C64.93695312 154.67416016 65.24890625 155.28582031 65.5703125 155.91601562 C66.80215156 158.37172926 67.92114219 160.68086401 68.58203125 163.35546875 C68.85715938 165.24299143 68.85715938 165.24299143 71.0625 166.25 C72.0215625 166.62125 72.0215625 166.62125 73 167 C73 167.66 73 168.32 73 169 C74.65 169.66 76.3 170.32 78 171 C78 175.62 78 180.24 78 185 C55.56 185 33.12 185 10 185 C10 174 10 174 11 173 C12.9944482 172.73843302 14.98949877 172.47998039 16.98828125 172.25390625 C19.04849406 171.99387939 21.00636538 171.58147676 23 171 C25.08557067 164.11761679 21.73308719 158.26332481 19 152 C17.53562145 148.14637223 16.75717476 145.12802907 17 141 C16.34 141 15.68 141 15 141 C13.26436339 136.54771478 11.94389853 132.71949266 11 128 C-7.81 128 -26.62 128 -46 128 C-47.98 133.61 -49.96 139.22 -52 145 C-52.7425 146.794375 -53.485 148.58875 -54.25 150.4375 C-56.97697996 157.13514535 -58.88491356 163.83732846 -57 171 C-56.01 171 -55.02 171 -54 171 C-54 171.66 -54 172.32 -54 173 C-52.081875 172.9690625 -52.081875 172.9690625 -50.125 172.9375 C-46.25 172.875 -46.25 172.875 -44 174 C-44 177.63 -44 181.26 -44 185 C-51.67536977 185.02255523 -59.35072729 185.04091753 -67.02612209 185.05181217 C-70.58977422 185.05703995 -74.15340257 185.06413569 -77.71704102 185.07543945 C-81.81006097 185.08834176 -85.9030558 185.09322906 -89.99609375 185.09765625 C-91.92418129 185.10539818 -91.92418129 185.10539818 -93.89122009 185.11329651 C-95.66294334 185.11340981 -95.66294334 185.11340981 -97.47045898 185.11352539 C-98.51636703 185.115746 -99.56227509 185.11796661 -100.63987732 185.12025452 C-103 185 -103 185 -104 184 C-104.09823937 182.33570949 -104.12973631 180.66718069 -104.125 179 C-104.12757812 178.0925 -104.13015625 177.185 -104.1328125 176.25 C-104 174 -104 174 -103 173 C-101.948125 172.87625 -100.89625 172.7525 -99.8125 172.625 C-93.96543966 171.66646552 -89.83575989 169.54608579 -86 165 C-85.67 164.01 -85.34 163.02 -85 162 C-84.34 162 -83.68 162 -83 162 C-82.855625 161.21625 -82.71125 160.4325 -82.5625 159.625 C-82 157 -82 157 -81 155 C-80.34 155 -79.68 155 -79 155 C-78.855625 153.9275 -78.71125 152.855 -78.5625 151.75 C-78.16250558 149.08337051 -77.72408076 146.58600271 -77 144 C-76.34 144 -75.68 144 -75 144 C-74.9175 143.236875 -74.835 142.47375 -74.75 141.6875 C-73.25006506 134.3128199 -70.14766086 127.37556656 -67.4375 120.375 C-65.46975489 115.29165847 -63.67072609 110.18804417 -62 105 C-61.34 105 -60.68 105 -60 105 C-59.88398437 104.175 -59.76796875 103.35 -59.6484375 102.5 C-58.91666828 98.55020951 -57.83296291 94.82521588 -56.625 91 C-56.41617187 90.31421875 -56.20734375 89.6284375 -55.9921875 88.921875 C-54.67664387 84.71855268 -53.04032224 80.91880589 -51 77 C-50.31363375 74.76474965 -50.31363375 74.76474965 -50 73 C-49.34 73 -48.68 73 -48 73 C-47.9175 71.88625 -47.835 70.7725 -47.75 69.625 C-47.09908326 64.36187325 -45.06372782 59.84359999 -43 55 C-42.44938684 53.56590301 -41.90694145 52.1286271 -41.375 50.6875 C-39.99145139 46.97707418 -38.53395066 43.30569312 -37.03515625 39.640625 C-34.8038159 34.15636678 -32.79854686 28.64089696 -31 23 C-30.34 23 -29.68 23 -29 23 C-28.896875 21.865625 -28.79375 20.73125 -28.6875 19.5625 C-27.11084242 7.88278658 -27.11084242 7.88278658 -23.4453125 4.61328125 C-16.69279111 0.8447579 -7.65868658 -0.47950038 0 0 Z M-19 52 C-22.10960848 59.9116145 -25.03666578 67.86467732 -27.82958984 75.89233398 C-29.200561 79.81085602 -30.64713768 83.66862277 -32.25 87.5 C-34.07553407 91.92692011 -35.09074399 96.30217728 -36 101 C-36.66 101 -37.32 101 -38 101 C-38.33 103.64 -38.66 106.28 -39 109 C-25.14 109 -11.28 109 3 109 C1.44065721 103.44541266 1.44065721 103.44541266 -0.4375 98.0625 C-0.81841797 97.06669922 -0.81841797 97.06669922 -1.20703125 96.05078125 C-1.59955078 95.03564453 -1.59955078 95.03564453 -2 94 C-5.04201409 86.0849965 -5.04201409 86.0849965 -6 82 C-6.66 82 -7.32 82 -8 82 C-8.144375 81.0925 -8.28875 80.185 -8.4375 79.25 C-8.86409473 76.78523044 -9.35074221 74.41152893 -10 72 C-10.66 72 -11.32 72 -12 72 C-12.061875 70.9275 -12.12375 69.855 -12.1875 68.75 C-12.8982965 62.76207797 -15.53981622 57.44690136 -18 52 C-18.33 52 -18.66 52 -19 52 Z " fill="#FDFDFD" transform="translate(1970,134)"/>
<path d="M0 0 C2.0234375 -0.36328125 2.0234375 -0.36328125 4.375 -0.3125 C5.14585937 -0.30863281 5.91671875 -0.30476563 6.7109375 -0.30078125 C9.18002469 0.02365512 10.85179272 0.76894971 13 2 C13 2.66 13 3.32 13 4 C16.6928784 4.85234515 20.10270081 5.12558756 23.88929749 5.12698364 C25.65790886 5.13121338 25.65790886 5.13121338 27.46224976 5.13552856 C28.74709259 5.13350433 30.03193542 5.1314801 31.35571289 5.12939453 C32.7292536 5.13075029 34.10279395 5.1325312 35.47633362 5.13470459 C39.19933696 5.13925774 42.92231254 5.13749818 46.64531636 5.1343255 C50.54320299 5.13179149 54.44108727 5.1341423 58.338974 5.13571167 C64.88329494 5.1375301 71.4276046 5.13513538 77.97192383 5.13037109 C85.53764566 5.12492683 93.10334054 5.12669364 100.66906172 5.1321975 C107.16683815 5.1367352 113.66460647 5.13737602 120.16238397 5.13475883 C124.04241944 5.13319998 127.92244223 5.13299164 131.80247688 5.13629532 C135.44927546 5.13918363 139.09603927 5.13718063 142.74283409 5.13140106 C144.71964851 5.12944792 146.69646587 5.13241905 148.67327881 5.13552856 C149.84953323 5.13270874 151.02578766 5.12988892 152.23768616 5.12698364 C153.25991303 5.12660662 154.28213991 5.12622959 155.33534336 5.12584114 C157.7629036 5.01119712 159.74262875 4.90112039 162 4 C162.33 3.01 162.66 2.02 163 1 C165.52475462 -0.26237731 167.31200466 -0.09856404 170.125 -0.0625 C171.03507813 -0.05347656 171.94515625 -0.04445313 172.8828125 -0.03515625 C173.93082031 -0.01775391 173.93082031 -0.01775391 175 0 C175.29014373 4.46134573 175.574695 8.92300602 175.85449219 13.38500977 C175.95003242 14.89682181 176.0469921 16.40854495 176.14550781 17.92016602 C177.86022394 44.27955213 177.86022394 44.27955213 176 48 C174.20866022 48.05391993 172.41686101 48.09275571 170.625 48.125 C169.62726563 48.14820313 168.62953125 48.17140625 167.6015625 48.1953125 C165 48 165 48 163 46 C162.5859375 43.8359375 162.5859375 43.8359375 162.375 41.375 C162.26285156 40.14910156 162.26285156 40.14910156 162.1484375 38.8984375 C162.09945312 38.27195313 162.05046875 37.64546875 162 37 C161.34 37 160.68 37 160 37 C159.62875 36.1028125 159.62875 36.1028125 159.25 35.1875 C157.51965781 32.15940116 155.36879863 30.50887185 152.09423828 29.29150391 C143.12072141 27.45438991 133.99824833 27.54188869 124.875 27.375 C123.13800284 27.33674586 121.40102315 27.29769003 119.6640625 27.2578125 C115.44285295 27.16262741 111.221555 27.07830663 107 27 C107.060606 47.03687599 107.13815637 67.07361869 107.23571491 87.11034966 C107.28062377 96.4143752 107.32004972 105.7183629 107.34643555 115.02246094 C107.36945544 123.13471489 107.40289793 131.24684854 107.44870156 139.359007 C107.47258006 143.65179977 107.49134397 147.94447379 107.49761391 152.23733139 C107.50368917 156.28392618 107.52377647 160.33021735 107.55427551 164.37669945 C107.56301679 165.85603026 107.56678649 167.33540082 107.56500816 168.81475639 C107.55824335 177.04429338 107.99632436 184.28116013 111 192 C111.85980469 192.1340625 112.71960938 192.268125 113.60546875 192.40625 C116.88537364 192.97995028 120.08215237 193.69543023 123.3125 194.5 C124.36050781 194.7578125 125.40851563 195.015625 126.48828125 195.28125 C129 196 129 196 130 197 C130.09823996 198.47648876 130.12973519 199.95775417 130.125 201.4375 C130.12757813 202.24058594 130.13015625 203.04367187 130.1328125 203.87109375 C130 206 130 206 129 208 C101.94 208 74.88 208 47 208 C47 204.04 47 200.08 47 196 C48.14339844 195.74605469 49.28679688 195.49210938 50.46484375 195.23046875 C51.95588841 194.88349609 53.44676542 194.53580247 54.9375 194.1875 C56.06961914 193.9390332 56.06961914 193.9390332 57.22460938 193.68554688 C59.17570413 193.22183377 61.09255787 192.6192456 63 192 C63.33 191.01 63.66 190.02 64 189 C64.66 189 65.32 189 66 189 C66.00423194 188.18939747 66.00846388 187.37879494 66.01282406 186.54362869 C66.11607464 166.83082719 66.22470403 147.11806174 66.33933926 127.40532303 C66.39464563 117.87244137 66.44812341 108.33955596 66.49731445 98.80664062 C66.54018794 90.49892424 66.58647395 82.19123513 66.63687855 73.8835609 C66.66345396 69.48367469 66.68830643 65.08379381 66.70907402 60.68387604 C66.72866886 56.54383759 66.75282119 52.40385091 66.78049088 48.2638588 C66.78984622 46.74329443 66.79752694 45.22271872 66.80341911 43.70213699 C66.81170609 41.62780425 66.82598994 39.5535963 66.84178162 37.47930908 C66.84823417 36.31784992 66.85468672 35.15639076 66.8613348 33.95973587 C66.97862321 31.45627626 67.26776497 29.38302273 68 27 C62.43142735 27.11874022 56.86301534 27.24301943 51.29467773 27.37231445 C49.40245884 27.41548479 47.51020547 27.45717159 45.61791992 27.49731445 C42.88970576 27.55545319 40.16166228 27.61901936 37.43359375 27.68359375 C36.59477158 27.70030624 35.7559494 27.71701874 34.89170837 27.73423767 C24.62670093 27.89904469 24.62670093 27.89904469 16 33 C15.34 33 14.68 33 14 33 C13.9175 33.825 13.835 34.65 13.75 35.5 C12.83535064 39.76836369 11.17748196 44.82251804 8 48 C6.14712498 48.07226502 4.29166122 48.0838122 2.4375 48.0625 C1.42558594 48.05347656 0.41367187 48.04445312 -0.62890625 48.03515625 C-1.41136719 48.02355469 -2.19382812 48.01195312 -3 48 C-3.13668498 37.36894599 -2.94560142 26.75181392 -2.625 16.125 C-2.59414307 14.88266602 -2.56328613 13.64033203 -2.53149414 12.36035156 C-2.4927417 11.19213867 -2.45398926 10.02392578 -2.4140625 8.8203125 C-2.3826416 7.77117676 -2.3512207 6.72204102 -2.31884766 5.64111328 C-2 3 -2 3 0 0 Z " fill="#FDFDFD" transform="translate(842,111)"/>
</svg>
